<svg width="345" height="265" viewBox="0 0 345 265" fill="none" xmlns="http://www.w3.org/2000/svg">
<g filter="url(#filter0_d_1_637)">
<rect x="92.0596" y="88.5295" width="160.965" height="82.3199" fill="white"/>
</g>
<rect x="106.024" y="148.799" width="133.035" height="8.81999" fill="#E8F2FF"/>
<rect x="106.024" y="148.799" width="68.3549" height="8.81999" fill="#3734A9"/>
<path d="M106.73 112.229V105.879H107.378V111.608H110.395V112.229H106.73ZM111.235 106.563V105.835H111.883V106.563H111.235ZM111.235 112.229V107.467H111.883V112.229H111.235ZM113.201 112.229L113.205 105.879H113.858V109.76L115.983 107.467H116.848L114.616 109.848L117.139 112.229H116.195L113.858 109.936V112.229H113.201ZM119.51 112.362C119.045 112.362 118.643 112.259 118.302 112.053C117.963 111.847 117.7 111.558 117.512 111.184C117.324 110.811 117.23 110.373 117.23 109.87C117.23 109.35 117.323 108.9 117.508 108.521C117.693 108.141 117.953 107.849 118.288 107.643C118.626 107.437 119.025 107.334 119.483 107.334C119.954 107.334 120.355 107.443 120.687 107.661C121.02 107.875 121.271 108.184 121.441 108.587C121.612 108.99 121.69 109.47 121.675 110.029H121.014V109.8C121.002 109.182 120.868 108.716 120.612 108.402C120.36 108.087 119.989 107.93 119.501 107.93C118.99 107.93 118.597 108.096 118.324 108.428C118.053 108.76 117.918 109.234 117.918 109.848C117.918 110.448 118.053 110.914 118.324 111.246C118.597 111.575 118.984 111.74 119.483 111.74C119.824 111.74 120.121 111.662 120.374 111.506C120.63 111.347 120.831 111.12 120.978 110.823L121.583 111.056C121.394 111.471 121.117 111.793 120.749 112.022C120.385 112.249 119.971 112.362 119.51 112.362ZM117.689 110.029V109.486H121.327V110.029H117.689ZM124.431 112.357C123.873 112.357 123.412 112.237 123.051 111.996C122.692 111.755 122.472 111.42 122.389 110.99L123.051 110.88C123.121 111.151 123.282 111.367 123.531 111.528C123.784 111.687 124.096 111.766 124.466 111.766C124.828 111.766 125.113 111.691 125.322 111.542C125.531 111.389 125.635 111.181 125.635 110.92C125.635 110.773 125.601 110.654 125.534 110.563C125.469 110.468 125.335 110.382 125.132 110.302C124.929 110.223 124.627 110.129 124.224 110.02C123.792 109.902 123.454 109.785 123.21 109.667C122.966 109.55 122.792 109.414 122.689 109.262C122.586 109.106 122.535 108.916 122.535 108.693C122.535 108.422 122.611 108.186 122.764 107.983C122.917 107.777 123.129 107.618 123.399 107.506C123.67 107.392 123.984 107.334 124.343 107.334C124.702 107.334 125.022 107.393 125.304 107.511C125.589 107.625 125.819 107.787 125.992 107.996C126.166 108.205 126.269 108.447 126.301 108.724L125.639 108.843C125.595 108.563 125.456 108.343 125.22 108.181C124.988 108.016 124.693 107.931 124.334 107.925C123.996 107.917 123.721 107.981 123.509 108.119C123.298 108.255 123.192 108.435 123.192 108.662C123.192 108.788 123.23 108.897 123.307 108.988C123.383 109.076 123.521 109.16 123.721 109.24C123.924 109.319 124.212 109.406 124.585 109.5C125.024 109.611 125.367 109.729 125.617 109.853C125.867 109.976 126.045 110.122 126.151 110.289C126.257 110.457 126.31 110.664 126.31 110.911C126.31 111.361 126.142 111.715 125.807 111.974C125.475 112.229 125.016 112.357 124.431 112.357Z" fill="black"/>
<path d="M109.177 137.135V127.885L106.994 129.227V126.802L109.177 125.492H111.425V137.135H109.177ZM119.237 137.135V135.323H114.175V133.27L117.846 125.492H120.369L116.698 133.27H119.237V130.359H121.468V133.27H122.503V135.323H121.468V137.135H119.237ZM128.765 137.377C127.902 137.377 127.148 137.197 126.501 136.835C125.854 136.474 125.35 135.97 124.989 135.323C124.628 134.677 124.447 133.922 124.447 133.06V129.567C124.447 128.705 124.628 127.95 124.989 127.303C125.35 126.656 125.854 126.152 126.501 125.791C127.148 125.43 127.902 125.25 128.765 125.25C129.627 125.25 130.382 125.43 131.028 125.791C131.675 126.152 132.179 126.656 132.54 127.303C132.901 127.95 133.082 128.705 133.082 129.567V133.06C133.082 133.922 132.901 134.677 132.54 135.323C132.179 135.97 131.675 136.474 131.028 136.835C130.382 137.197 129.627 137.377 128.765 137.377ZM128.765 135.291C129.153 135.291 129.503 135.2 129.816 135.016C130.128 134.833 130.376 134.585 130.559 134.272C130.743 133.96 130.834 133.609 130.834 133.221V129.389C130.834 129.001 130.743 128.651 130.559 128.338C130.376 128.025 130.128 127.777 129.816 127.594C129.503 127.411 129.153 127.319 128.765 127.319C128.377 127.319 128.026 127.411 127.714 127.594C127.401 127.777 127.153 128.025 126.97 128.338C126.786 128.651 126.695 129.001 126.695 129.389V133.221C126.695 133.609 126.786 133.96 126.97 134.272C127.153 134.585 127.401 134.833 127.714 135.016C128.026 135.2 128.377 135.291 128.765 135.291ZM135.181 139.317L135.311 138.396C135.569 138.417 135.78 138.374 135.941 138.266C136.103 138.164 136.213 138.013 136.273 137.814C136.337 137.62 136.351 137.393 136.313 137.135H135.181V134.935H137.38V137.135C137.38 137.911 137.2 138.498 136.839 138.897C136.478 139.296 135.925 139.436 135.181 139.317ZM144.195 125.266C144.965 125.266 145.655 125.446 146.264 125.807C146.879 126.169 147.364 126.673 147.72 127.319C148.075 127.961 148.253 128.705 148.253 129.551V132.93C148.253 133.847 148.075 134.639 147.72 135.307C147.364 135.97 146.863 136.482 146.216 136.843C145.569 137.199 144.809 137.377 143.936 137.377C143.37 137.377 142.831 137.294 142.319 137.126C141.812 136.954 141.343 136.671 140.912 136.278L142.481 134.709C142.675 134.903 142.898 135.054 143.152 135.162C143.41 135.27 143.672 135.323 143.936 135.323C144.356 135.323 144.72 135.226 145.027 135.032C145.34 134.833 145.58 134.577 145.747 134.264C145.919 133.946 146.006 133.609 146.006 133.254V131.524L146.377 131.928C146.049 132.267 145.663 132.529 145.221 132.712C144.779 132.89 144.324 132.979 143.855 132.979C143.122 132.979 142.475 132.814 141.915 132.486C141.359 132.157 140.923 131.707 140.605 131.135C140.292 130.564 140.136 129.912 140.136 129.179C140.136 128.446 140.322 127.786 140.694 127.198C141.066 126.605 141.559 126.136 142.173 125.791C142.788 125.441 143.461 125.266 144.195 125.266ZM144.195 127.368C143.86 127.368 143.553 127.449 143.273 127.61C142.998 127.772 142.777 127.99 142.61 128.265C142.448 128.54 142.367 128.845 142.367 129.179C142.367 129.513 142.448 129.82 142.61 130.101C142.772 130.375 142.99 130.596 143.265 130.764C143.54 130.925 143.844 131.006 144.178 131.006C144.513 131.006 144.817 130.925 145.092 130.764C145.372 130.596 145.593 130.375 145.755 130.101C145.922 129.82 146.006 129.513 146.006 129.179C146.006 128.855 145.925 128.556 145.763 128.281C145.601 128.007 145.383 127.786 145.108 127.618C144.833 127.451 144.529 127.368 144.195 127.368ZM155.256 137.135V135.323H150.195V133.27L153.865 125.492H156.388L152.717 133.27H155.256V130.359H157.487V133.27H158.522V135.323H157.487V137.135H155.256ZM164.363 137.377C163.576 137.377 162.876 137.218 162.261 136.9C161.652 136.577 161.173 136.135 160.822 135.574C160.477 135.008 160.305 134.364 160.305 133.642C160.305 133.027 160.442 132.448 160.717 131.904C160.997 131.359 161.399 130.914 161.922 130.57L161.873 131.249C161.48 130.866 161.17 130.462 160.943 130.036C160.722 129.61 160.612 129.13 160.612 128.597C160.612 127.923 160.771 127.336 161.089 126.834C161.412 126.333 161.854 125.945 162.415 125.67C162.981 125.39 163.63 125.25 164.363 125.25C165.096 125.25 165.743 125.39 166.304 125.67C166.87 125.945 167.312 126.333 167.63 126.834C167.953 127.336 168.115 127.923 168.115 128.597C168.115 129.13 168.01 129.61 167.8 130.036C167.589 130.456 167.269 130.866 166.837 131.265V130.586C167.349 130.909 167.743 131.346 168.018 131.895C168.298 132.445 168.438 133.027 168.438 133.642C168.438 134.364 168.263 135.008 167.913 135.574C167.562 136.135 167.08 136.577 166.466 136.9C165.851 137.218 165.15 137.377 164.363 137.377ZM164.363 135.307C164.881 135.307 165.301 135.167 165.625 134.887C165.948 134.607 166.11 134.192 166.11 133.642C166.11 133.097 165.948 132.682 165.625 132.397C165.301 132.106 164.881 131.96 164.363 131.96C163.846 131.96 163.428 132.106 163.11 132.397C162.792 132.682 162.633 133.097 162.633 133.642C162.633 134.192 162.792 134.607 163.11 134.887C163.428 135.167 163.846 135.307 164.363 135.307ZM164.363 129.874C164.784 129.874 165.126 129.772 165.39 129.567C165.654 129.357 165.786 129.033 165.786 128.597C165.786 128.16 165.654 127.837 165.39 127.627C165.126 127.411 164.784 127.303 164.363 127.303C163.943 127.303 163.601 127.411 163.337 127.627C163.073 127.837 162.94 128.16 162.94 128.597C162.94 129.033 163.073 129.357 163.337 129.567C163.601 129.772 163.943 129.874 164.363 129.874Z" fill="black"/>
<path d="M207.823 134.809V128.754L206.434 129.603V128.234L207.823 127.401H209.089V134.809H207.823ZM212.335 134.809V128.754L210.946 129.603V128.234L212.335 127.401H213.601V134.809H212.335ZM215.355 134.809V133.539H216.625V134.809H215.355ZM218.068 134.799V133.719L221.237 130.894C221.484 130.674 221.656 130.467 221.752 130.271C221.848 130.076 221.896 129.887 221.896 129.705C221.896 129.459 221.843 129.239 221.737 129.047C221.63 128.851 221.483 128.697 221.294 128.584C221.109 128.471 220.894 128.414 220.651 128.414C220.394 128.414 220.166 128.474 219.967 128.594C219.771 128.711 219.618 128.867 219.509 129.062C219.399 129.258 219.348 129.469 219.354 129.695H218.078C218.078 129.201 218.188 128.771 218.408 128.404C218.631 128.037 218.936 127.752 219.324 127.55C219.715 127.347 220.166 127.246 220.677 127.246C221.15 127.246 221.575 127.353 221.953 127.565C222.33 127.774 222.627 128.066 222.843 128.44C223.059 128.81 223.167 129.237 223.167 129.721C223.167 130.074 223.119 130.371 223.023 130.611C222.927 130.851 222.783 131.072 222.591 131.275C222.402 131.477 222.167 131.702 221.886 131.949L219.637 133.94L219.524 133.631H223.167V134.799H218.068ZM226.827 134.964C226.337 134.964 225.901 134.864 225.52 134.665C225.139 134.466 224.841 134.19 224.625 133.837C224.409 133.484 224.301 133.079 224.301 132.623C224.301 132.215 224.395 131.836 224.584 131.486C224.772 131.136 225.049 130.856 225.412 130.647L225.386 131.043C225.102 130.827 224.88 130.578 224.723 130.297C224.568 130.012 224.491 129.693 224.491 129.34C224.491 128.915 224.591 128.546 224.79 128.234C224.992 127.922 225.268 127.68 225.618 127.509C225.968 127.334 226.371 127.246 226.827 127.246C227.283 127.246 227.686 127.334 228.036 127.509C228.389 127.68 228.665 127.922 228.864 128.234C229.067 128.546 229.168 128.915 229.168 129.34C229.168 129.693 229.093 130.011 228.942 130.292C228.794 130.573 228.569 130.827 228.268 131.053L228.262 130.652C228.619 130.855 228.892 131.132 229.081 131.486C229.273 131.836 229.369 132.215 229.369 132.623C229.369 133.079 229.259 133.484 229.039 133.837C228.823 134.19 228.523 134.466 228.139 134.665C227.758 134.864 227.321 134.964 226.827 134.964ZM226.827 133.796C227.191 133.796 227.486 133.696 227.712 133.497C227.942 133.298 228.057 133.007 228.057 132.623C228.057 132.239 227.943 131.947 227.717 131.748C227.491 131.546 227.194 131.445 226.827 131.445C226.463 131.445 226.17 131.546 225.947 131.748C225.724 131.947 225.613 132.239 225.613 132.623C225.613 133.007 225.724 133.298 225.947 133.497C226.17 133.696 226.463 133.796 226.827 133.796ZM226.827 130.266C227.132 130.266 227.379 130.191 227.568 130.04C227.76 129.886 227.856 129.652 227.856 129.34C227.856 129.028 227.76 128.797 227.568 128.646C227.379 128.491 227.132 128.414 226.827 128.414C226.525 128.414 226.278 128.491 226.086 128.646C225.897 128.797 225.803 129.028 225.803 129.34C225.803 129.652 225.897 129.886 226.086 130.04C226.278 130.191 226.525 130.266 226.827 130.266ZM231.733 134.809L230.91 133.986L237.501 127.401L238.324 128.229L231.733 134.809ZM236.781 134.964C236.441 134.964 236.131 134.881 235.849 134.717C235.571 134.549 235.349 134.326 235.18 134.048C235.012 133.767 234.928 133.454 234.928 133.111C234.928 132.775 235.014 132.467 235.186 132.185C235.357 131.904 235.583 131.679 235.865 131.511C236.146 131.343 236.451 131.259 236.781 131.259C237.12 131.259 237.431 131.343 237.712 131.511C237.993 131.676 238.216 131.899 238.381 132.18C238.549 132.458 238.633 132.768 238.633 133.111C238.633 133.454 238.549 133.767 238.381 134.048C238.216 134.326 237.993 134.549 237.712 134.717C237.431 134.881 237.12 134.964 236.781 134.964ZM236.781 133.904C236.921 133.904 237.052 133.868 237.172 133.796C237.295 133.724 237.393 133.628 237.465 133.508C237.537 133.388 237.573 133.256 237.573 133.111C237.573 132.967 237.537 132.835 237.465 132.715C237.393 132.595 237.295 132.499 237.172 132.427C237.052 132.355 236.921 132.319 236.781 132.319C236.636 132.319 236.504 132.355 236.384 132.427C236.264 132.499 236.167 132.595 236.091 132.715C236.019 132.835 235.983 132.967 235.983 133.111C235.983 133.256 236.019 133.388 236.091 133.508C236.167 133.628 236.264 133.724 236.384 133.796C236.504 133.868 236.636 133.904 236.781 133.904ZM232.454 130.951C232.114 130.951 231.804 130.868 231.522 130.704C231.241 130.536 231.016 130.313 230.848 130.035C230.684 129.754 230.601 129.441 230.601 129.098C230.601 128.762 230.687 128.454 230.859 128.172C231.03 127.891 231.257 127.666 231.538 127.498C231.819 127.33 232.124 127.246 232.454 127.246C232.793 127.246 233.102 127.33 233.38 127.498C233.661 127.663 233.886 127.886 234.054 128.167C234.222 128.445 234.306 128.755 234.306 129.098C234.306 129.441 234.222 129.754 234.054 130.035C233.886 130.313 233.661 130.536 233.38 130.704C233.102 130.868 232.793 130.951 232.454 130.951ZM232.454 129.891C232.598 129.891 232.73 129.855 232.85 129.783C232.97 129.711 233.066 129.615 233.138 129.495C233.21 129.374 233.246 129.242 233.246 129.098C233.246 128.954 233.21 128.822 233.138 128.702C233.066 128.582 232.97 128.486 232.85 128.414C232.73 128.342 232.598 128.306 232.454 128.306C232.31 128.306 232.177 128.342 232.057 128.414C231.937 128.486 231.841 128.582 231.769 128.702C231.697 128.822 231.661 128.954 231.661 129.098C231.661 129.242 231.697 129.374 231.769 129.495C231.841 129.615 231.937 129.711 232.057 129.783C232.177 129.855 232.31 129.891 232.454 129.891Z" fill="#3734A9"/>
<path d="M201.942 127.116L201.942 134.834M201.942 134.834L199.002 131.894M201.942 134.834L204.882 131.894" stroke="#3734A9" stroke-width="1.47" stroke-linecap="round" stroke-linejoin="round"/>
<defs>
<filter id="filter0_d_1_637" x="0.919708" y="0.329674" width="343.245" height="264.6" filterUnits="userSpaceOnUse" color-interpolation-filters="sRGB">
<feFlood flood-opacity="0" result="BackgroundImageFix"/>
<feColorMatrix in="SourceAlpha" type="matrix" values="0 0 0 0 0 0 0 0 0 0 0 0 0 0 0 0 0 0 127 0" result="hardAlpha"/>
<feOffset dy="2.94"/>
<feGaussianBlur stdDeviation="45.5699"/>
<feComposite in2="hardAlpha" operator="out"/>
<feColorMatrix type="matrix" values="0 0 0 0 0 0 0 0 0 0 0 0 0 0 0 0 0 0 0.1 0"/>
<feBlend mode="normal" in2="BackgroundImageFix" result="effect1_dropShadow_1_637"/>
<feBlend mode="normal" in="SourceGraphic" in2="effect1_dropShadow_1_637" result="shape"/>
</filter>
</defs>
</svg>
