<svg width="370" height="342" viewBox="0 0 370 342" fill="none" xmlns="http://www.w3.org/2000/svg">
<g filter="url(#filter0_d_1_649)">
<rect x="118.06" y="116.026" width="132.704" height="104.268" transform="rotate(-0.646269 118.06 116.026)" fill="white"/>
</g>
<path d="M130.8 166.814L139.194 166.719L139.165 164.171L136.526 164.201L136.376 150.825L130.778 152.754L130.809 155.484L133.439 154.681L133.546 164.235L130.771 164.266L130.8 166.814ZM143.757 155.36C143.808 153.767 145.598 153.11 147.349 153.09C149.192 153.138 150.564 153.691 150.584 155.443C150.604 157.285 148.402 157.674 147.196 157.688C144.057 157.723 140.748 158.852 140.789 162.515C140.805 163.925 140.821 165.313 140.837 166.7L153.735 166.555L153.703 163.757L143.808 163.869L143.792 162.504C143.773 160.775 145.907 160.41 147.227 160.395C150.571 160.357 153.608 159.39 153.563 155.341C153.521 151.61 150.3 150.463 147.32 150.497C144.272 150.531 141.031 151.637 140.777 155.394L143.757 155.36ZM158.947 155.189C158.997 153.596 160.787 152.939 162.539 152.919C164.382 152.966 165.753 153.52 165.773 155.271C165.794 157.114 163.591 157.503 162.386 157.516C159.247 157.552 155.938 158.681 155.979 162.344C155.995 163.754 156.011 165.142 156.026 166.529L168.924 166.384L168.893 163.586L158.997 163.697L158.982 162.332C158.962 160.604 161.097 160.238 162.416 160.223C165.76 160.186 168.798 159.219 168.752 155.169C168.71 151.439 165.489 150.292 162.509 150.326C159.461 150.36 156.22 151.466 155.967 155.223L158.947 155.189ZM174.433 165.138C174.409 163.068 171.178 163.014 171.202 165.107C171.21 165.812 171.646 166.216 172.285 166.323L171.878 168.58L173.447 168.562C174.458 165.343 174.436 165.411 174.433 165.138ZM179.758 155.318C179.739 153.589 181.547 152.591 183.345 152.593C185.051 152.574 186.833 153.259 186.849 154.67L189.852 154.636C189.814 151.292 186.728 149.962 183.27 150.001C179.994 150.037 176.737 151.735 176.777 155.284L176.844 161.221C176.885 164.792 180.294 166.506 183.547 166.469C186.754 166.433 190.124 164.643 190.084 161.117C190.039 157.159 186.658 155.855 183.45 155.891C182.199 155.905 180.477 156.516 179.784 157.616L179.757 155.227L179.758 155.318ZM183.517 163.785C181.56 163.807 179.867 162.984 179.825 161.233C179.782 159.459 181.478 158.53 183.48 158.507C185.482 158.484 187.084 159.399 187.104 161.151C187.124 162.902 185.405 163.763 183.517 163.785ZM198.714 159.109C201.581 159.076 202.117 160.253 202.128 161.209C202.147 162.915 200.13 163.575 198.606 163.592C197.309 163.606 195.096 163.063 195.078 161.425L192.052 161.459C192.116 165.076 195.588 166.31 198.613 166.276C201.684 166.242 205.334 165.04 205.29 161.15C205.272 159.603 204.188 158.319 202.659 157.836C204.041 157.388 204.846 156.127 204.83 154.672C204.769 151.282 201.522 149.863 198.519 149.897C195.585 149.93 192.187 151.22 192.226 154.654L195.228 154.621C195.212 153.165 197.117 152.643 198.528 152.627C201.075 152.598 201.817 153.795 201.827 154.705C201.821 156.184 200.12 156.636 198.505 156.654L196.207 156.68L196.235 159.137L198.714 159.109ZM211.684 165.901L218.665 151.49L218.488 149.899L206.796 150.031L206.828 152.897L214.585 152.81L208.226 165.94L211.684 165.901Z" fill="black"/>
<path d="M133.727 137.128L134.445 137.12L134.394 132.633L133.561 132.643L132.111 134.762L130.606 132.676C130.318 132.679 130.055 132.682 129.773 132.685L129.824 137.172L130.542 137.164L130.503 133.722L132.033 135.826L132.187 135.825L133.688 133.686L133.727 137.128ZM137.938 134.414C137.736 134.057 137.304 133.85 136.855 133.855C135.945 133.866 135.227 134.464 135.239 135.521C135.252 136.598 135.957 137.186 136.88 137.169C137.271 137.165 137.756 136.967 137.963 136.561L138 137.073L138.629 137.066C138.617 136.015 138.605 134.957 138.593 133.906L137.952 133.914L137.938 134.414ZM136.913 134.457C138.278 134.442 138.302 136.538 136.937 136.553C136.373 136.56 135.907 136.167 135.9 135.514C135.892 134.866 136.349 134.464 136.913 134.457ZM139.553 133.896L139.588 137.055L140.248 137.048L140.229 135.337C140.223 134.753 140.617 134.467 141.072 134.462C141.315 134.459 141.47 134.521 141.632 134.648L141.926 134.067C141.745 133.909 141.449 133.804 141.141 133.807C140.802 133.811 140.444 133.898 140.218 134.305L140.168 133.889L139.553 133.896ZM144.602 136.146C144.399 136.36 144.125 136.446 143.856 136.45C143.311 136.456 142.845 136.108 142.838 135.442C142.831 134.814 143.268 134.405 143.839 134.398C144.089 134.396 144.353 134.482 144.553 134.672L144.971 134.225C144.628 133.896 144.261 133.765 143.825 133.77C142.909 133.781 142.165 134.36 142.178 135.449C142.19 136.539 142.953 137.101 143.863 137.09C144.318 137.085 144.707 136.934 145.056 136.583L144.602 136.146ZM145.662 132.5L145.713 136.986L146.373 136.979L146.354 135.332C146.349 134.812 146.703 134.385 147.215 134.38C147.703 134.374 148.014 134.665 148.02 135.262L148.039 136.96L148.7 136.953L148.68 135.248C148.67 134.344 148.253 133.752 147.362 133.763C146.984 133.767 146.614 133.899 146.343 134.287L146.322 132.492L145.662 132.5ZM151.898 133.705C151.905 133.179 152.48 132.987 152.999 132.981C153.544 132.994 154.033 133.162 154.039 133.726C154.046 134.309 153.374 134.445 152.97 134.449C152.099 134.459 151.173 134.764 151.184 135.79C151.189 136.168 151.193 136.546 151.197 136.924L154.78 136.884L154.772 136.211L151.882 136.244L151.876 135.782C151.87 135.205 152.542 135.089 152.984 135.084C153.888 135.074 154.756 134.788 154.744 133.705C154.732 132.673 153.825 132.35 152.992 132.359C152.146 132.369 151.233 132.68 151.18 133.713L151.898 133.705ZM157.766 132.37L155.338 135.339L155.435 135.986L157.922 135.958L157.932 136.848L158.644 136.84L158.633 135.949L159.165 135.943L159.158 135.277L158.626 135.283L158.593 132.36L157.766 132.37ZM156.139 135.311L157.891 133.201L157.915 135.291L156.139 135.311ZM160.711 136.522C160.705 135.997 159.891 136.025 159.897 136.512C159.899 136.692 160.009 136.799 160.17 136.83L160.036 137.44L160.433 137.436C160.668 136.702 160.712 136.618 160.711 136.522ZM163.877 134.147C163.858 132.448 166.179 132.441 166.198 134.121L166.206 134.903C166.226 136.607 163.905 136.634 163.886 134.929L163.877 134.147ZM163.168 134.937C163.198 137.539 166.954 137.49 166.924 134.894L166.915 134.112C166.886 131.517 163.13 131.553 163.16 134.155L163.168 134.937ZM168.448 133.518C168.455 132.993 169.03 132.8 169.549 132.794C170.094 132.807 170.583 132.975 170.59 133.539C170.596 134.122 169.925 134.258 169.521 134.263C168.649 134.272 167.723 134.578 167.735 135.603C167.739 135.981 167.743 136.36 167.748 136.738L171.33 136.697L171.323 136.024L168.432 136.057L168.427 135.595C168.421 135.019 169.092 134.902 169.535 134.897C170.438 134.887 171.307 134.601 171.295 133.518C171.283 132.486 170.375 132.163 169.542 132.173C168.696 132.182 167.783 132.494 167.731 133.526L168.448 133.518ZM172.178 136.335C172.184 136.867 172.991 136.858 172.985 136.326C172.979 135.794 172.172 135.803 172.178 136.335ZM172.157 134.464C172.163 134.996 172.97 134.987 172.964 134.455C172.958 133.916 172.151 133.925 172.157 134.464ZM174.523 134.027C174.503 132.328 176.824 132.321 176.843 134.001L176.852 134.782C176.871 136.487 174.551 136.514 174.531 134.809L174.523 134.027ZM173.813 134.817C173.843 137.419 177.599 137.37 177.569 134.774L177.561 133.992C177.531 131.397 173.775 131.433 173.805 134.035L173.813 134.817ZM179.074 133.975C179.055 132.277 181.376 132.27 181.395 133.949L181.403 134.731C181.423 136.436 179.103 136.462 179.083 134.757L179.074 133.975ZM178.365 134.765C178.395 137.368 182.151 137.319 182.121 134.723L182.113 133.941C182.083 131.345 178.327 131.381 178.357 133.983L178.365 134.765ZM183.812 132.723L185.17 132.708C186.35 132.695 186.376 134.489 185.191 134.503L183.832 134.518L183.812 132.723ZM185.198 135.163C187.345 135.126 187.304 132.024 185.163 132.048C184.477 132.055 183.772 132.07 183.086 132.078L183.137 136.564L183.855 136.556L183.839 135.178L185.198 135.163ZM191.536 136.476L192.254 136.468L192.203 131.981L191.37 131.991L189.92 134.109L188.415 132.024C188.127 132.027 187.864 132.03 187.582 132.033L187.633 136.52L188.35 136.512L188.312 133.07L189.842 135.174L189.996 135.173L191.497 133.034L191.536 136.476Z" fill="#8896A6"/>
<rect opacity="0.2" x="130.214" y="185.089" width="49.2901" height="20.8535" rx="1.60245" transform="rotate(-0.646269 130.214 185.089)" fill="#2FE6C8"/>
<path d="M148.502 192.889C148.512 192.112 149.362 191.827 150.13 191.819C150.936 191.838 151.659 192.086 151.668 192.92C151.678 193.782 150.685 193.983 150.088 193.99C148.799 194.004 147.429 194.456 147.446 195.972C147.453 196.532 147.459 197.091 147.465 197.65L152.764 197.59L152.752 196.595L148.478 196.643L148.47 195.961C148.46 195.108 149.454 194.935 150.108 194.928C151.444 194.913 152.729 194.491 152.711 192.889C152.693 191.363 151.351 190.885 150.119 190.899C148.868 190.913 147.518 191.374 147.44 192.901L148.502 192.889ZM153.605 197.581L157.008 197.542L156.998 196.661L155.842 196.674L155.777 190.921L153.595 191.637L153.606 192.566L154.739 192.231L154.79 196.686L153.595 196.699L153.605 197.581ZM157.595 197.014C157.604 197.82 158.808 197.807 158.799 197.001C158.79 196.205 157.586 196.218 157.595 197.014ZM162.94 190.849L159.35 195.241L159.493 196.197L163.171 196.155L163.185 197.473L164.238 197.461L164.223 196.143L165.009 196.135L164.998 195.149L164.212 195.158L164.163 190.836L162.94 190.849ZM160.534 195.199L163.125 192.08L163.159 195.17L160.534 195.199ZM167.006 190.709C165.025 190.731 165.058 193.612 167.039 193.59C169.029 193.568 168.997 190.686 167.006 190.709ZM170.391 190.737L166.172 197.439L167.12 197.428L171.329 190.726L170.391 190.737ZM167.005 191.41C168 191.399 168.026 192.868 167.04 192.879C166.036 192.89 166.009 191.421 167.005 191.41ZM170.434 194.576C168.453 194.598 168.486 197.479 170.467 197.457C172.457 197.435 172.424 194.553 170.434 194.576ZM170.432 195.277C171.428 195.266 171.454 196.735 170.468 196.746C169.463 196.757 169.437 195.288 170.432 195.277Z" fill="#2FE6C8"/>
<path d="M138.393 193.449C138.594 193.091 139.108 193.085 139.318 193.439L141.204 196.623C141.414 196.977 141.162 197.425 140.751 197.429L137.05 197.471C136.639 197.476 136.377 197.033 136.578 196.675L138.393 193.449Z" fill="#2FE6C8"/>
<defs>
<filter id="filter0_d_1_649" x="0.521599" y="0.783117" width="368.948" height="340.834" filterUnits="userSpaceOnUse" color-interpolation-filters="sRGB">
<feFlood flood-opacity="0" result="BackgroundImageFix"/>
<feColorMatrix in="SourceAlpha" type="matrix" values="0 0 0 0 0 0 0 0 0 0 0 0 0 0 0 0 0 0 127 0" result="hardAlpha"/>
<feOffset dy="3.79155"/>
<feGaussianBlur stdDeviation="58.769"/>
<feComposite in2="hardAlpha" operator="out"/>
<feColorMatrix type="matrix" values="0 0 0 0 0 0 0 0 0 0 0 0 0 0 0 0 0 0 0.1 0"/>
<feBlend mode="normal" in2="BackgroundImageFix" result="effect1_dropShadow_1_649"/>
<feBlend mode="normal" in="SourceGraphic" in2="effect1_dropShadow_1_649" result="shape"/>
</filter>
</defs>
</svg>
