<svg width="345" height="265" viewBox="0 0 345 265" fill="none" xmlns="http://www.w3.org/2000/svg">
<g filter="url(#filter0_d_1_625)">
<rect x="92.0596" y="88.5295" width="160.965" height="82.3199" fill="white"/>
</g>
<rect x="106.025" y="148.799" width="133.035" height="8.81999" fill="#E8F2FF"/>
<rect x="106.025" y="148.799" width="68.3549" height="8.81999" fill="#FDBC64"/>
<path d="M106.642 112.229V105.879H110.289V106.527H107.29V108.732H109.76V109.376H107.29V112.229H106.642ZM112.946 112.362C112.473 112.362 112.069 112.254 111.733 112.04C111.398 111.825 111.141 111.528 110.962 111.149C110.782 110.77 110.693 110.335 110.693 109.844C110.693 109.344 110.784 108.906 110.966 108.53C111.148 108.153 111.407 107.861 111.742 107.652C112.08 107.44 112.482 107.334 112.946 107.334C113.422 107.334 113.828 107.442 114.163 107.656C114.501 107.868 114.759 108.163 114.935 108.543C115.114 108.919 115.204 109.353 115.204 109.844C115.204 110.343 115.114 110.783 114.935 111.162C114.756 111.539 114.497 111.833 114.159 112.044C113.821 112.256 113.417 112.362 112.946 112.362ZM112.946 111.74C113.475 111.74 113.869 111.565 114.128 111.215C114.387 110.862 114.516 110.405 114.516 109.844C114.516 109.267 114.385 108.809 114.124 108.468C113.865 108.127 113.472 107.956 112.946 107.956C112.59 107.956 112.296 108.037 112.064 108.199C111.835 108.358 111.663 108.579 111.548 108.865C111.437 109.147 111.381 109.473 111.381 109.844C111.381 110.417 111.513 110.877 111.778 111.224C112.042 111.568 112.432 111.74 112.946 111.74ZM116.265 112.229V105.747H116.913V112.229H116.265ZM118.324 112.229V105.747H118.972V112.229H118.324ZM122.283 112.362C121.81 112.362 121.405 112.254 121.07 112.04C120.735 111.825 120.478 111.528 120.298 111.149C120.119 110.77 120.029 110.335 120.029 109.844C120.029 109.344 120.121 108.906 120.303 108.53C120.485 108.153 120.744 107.861 121.079 107.652C121.417 107.44 121.818 107.334 122.283 107.334C122.759 107.334 123.165 107.442 123.5 107.656C123.838 107.868 124.095 108.163 124.272 108.543C124.451 108.919 124.541 109.353 124.541 109.844C124.541 110.343 124.451 110.783 124.272 111.162C124.093 111.539 123.834 111.833 123.496 112.044C123.158 112.256 122.753 112.362 122.283 112.362ZM122.283 111.74C122.812 111.74 123.206 111.565 123.465 111.215C123.724 110.862 123.853 110.405 123.853 109.844C123.853 109.267 123.722 108.809 123.46 108.468C123.202 108.127 122.809 107.956 122.283 107.956C121.927 107.956 121.633 108.037 121.401 108.199C121.172 108.358 121 108.579 120.885 108.865C120.773 109.147 120.717 109.473 120.717 109.844C120.717 110.417 120.85 110.877 121.114 111.224C121.379 111.568 121.768 111.74 122.283 111.74ZM126.356 112.229L124.9 107.462L125.549 107.467L126.678 111.167L127.811 107.467H128.402L129.535 111.167L130.673 107.467H131.317L129.862 112.229H129.297L128.107 108.437L126.92 112.229H126.356ZM133.955 112.362C133.49 112.362 133.087 112.259 132.746 112.053C132.408 111.847 132.145 111.558 131.957 111.184C131.769 110.811 131.675 110.373 131.675 109.87C131.675 109.35 131.767 108.9 131.952 108.521C132.138 108.141 132.398 107.849 132.733 107.643C133.071 107.437 133.469 107.334 133.928 107.334C134.399 107.334 134.8 107.443 135.132 107.661C135.464 107.875 135.716 108.184 135.886 108.587C136.057 108.99 136.135 109.47 136.12 110.029H135.458V109.8C135.447 109.182 135.313 108.716 135.057 108.402C134.804 108.087 134.434 107.93 133.946 107.93C133.434 107.93 133.042 108.096 132.768 108.428C132.498 108.76 132.363 109.234 132.363 109.848C132.363 110.448 132.498 110.914 132.768 111.246C133.042 111.575 133.428 111.74 133.928 111.74C134.269 111.74 134.566 111.662 134.819 111.506C135.075 111.347 135.276 111.12 135.423 110.823L136.027 111.056C135.839 111.471 135.561 111.793 135.194 112.022C134.829 112.249 134.416 112.362 133.955 112.362ZM132.133 110.029V109.486H135.772V110.029H132.133ZM137.099 112.229V107.467H137.681V108.613L137.566 108.463C137.619 108.322 137.688 108.193 137.773 108.075C137.859 107.955 137.951 107.856 138.051 107.78C138.175 107.671 138.319 107.589 138.483 107.533C138.648 107.474 138.814 107.44 138.982 107.431C139.149 107.42 139.302 107.431 139.44 107.467V108.075C139.267 108.031 139.077 108.021 138.871 108.044C138.666 108.068 138.476 108.15 138.302 108.291C138.144 108.415 138.025 108.563 137.945 108.737C137.866 108.907 137.813 109.09 137.787 109.284C137.76 109.475 137.747 109.664 137.747 109.853V112.229H137.099ZM141.882 112.357C141.323 112.357 140.863 112.237 140.502 111.996C140.143 111.755 139.922 111.42 139.84 110.99L140.502 110.88C140.572 111.151 140.732 111.367 140.982 111.528C141.235 111.687 141.547 111.766 141.917 111.766C142.279 111.766 142.564 111.691 142.773 111.542C142.981 111.389 143.086 111.181 143.086 110.92C143.086 110.773 143.052 110.654 142.984 110.563C142.92 110.468 142.786 110.382 142.583 110.302C142.38 110.223 142.077 110.129 141.675 110.02C141.242 109.902 140.904 109.785 140.66 109.667C140.416 109.55 140.243 109.414 140.14 109.262C140.037 109.106 139.986 108.916 139.986 108.693C139.986 108.422 140.062 108.186 140.215 107.983C140.368 107.777 140.579 107.618 140.85 107.506C141.12 107.392 141.435 107.334 141.794 107.334C142.152 107.334 142.473 107.393 142.755 107.511C143.04 107.625 143.27 107.787 143.443 107.996C143.616 108.205 143.719 108.447 143.752 108.724L143.09 108.843C143.046 108.563 142.906 108.343 142.671 108.181C142.439 108.016 142.143 107.931 141.785 107.925C141.447 107.917 141.172 107.981 140.96 108.119C140.748 108.255 140.643 108.435 140.643 108.662C140.643 108.788 140.681 108.897 140.757 108.988C140.834 109.076 140.972 109.16 141.172 109.24C141.375 109.319 141.663 109.406 142.036 109.5C142.474 109.611 142.818 109.729 143.068 109.853C143.318 109.976 143.496 110.122 143.602 110.289C143.708 110.457 143.76 110.664 143.76 110.911C143.76 111.361 143.593 111.715 143.258 111.974C142.926 112.229 142.467 112.357 141.882 112.357Z" fill="black"/>
<path d="M110.892 125.266C111.662 125.266 112.352 125.446 112.961 125.807C113.576 126.169 114.061 126.673 114.417 127.319C114.772 127.961 114.95 128.705 114.95 129.551V132.93C114.95 133.847 114.772 134.639 114.417 135.307C114.061 135.97 113.56 136.482 112.913 136.843C112.266 137.199 111.506 137.377 110.633 137.377C110.067 137.377 109.528 137.294 109.016 137.126C108.509 136.954 108.04 136.671 107.609 136.278L109.178 134.709C109.372 134.903 109.595 135.054 109.849 135.162C110.107 135.27 110.369 135.323 110.633 135.323C111.053 135.323 111.417 135.226 111.724 135.032C112.037 134.833 112.277 134.577 112.444 134.264C112.616 133.946 112.703 133.609 112.703 133.254V131.524L113.075 131.928C112.746 132.267 112.36 132.529 111.918 132.712C111.476 132.89 111.021 132.979 110.552 132.979C109.819 132.979 109.172 132.814 108.612 132.486C108.056 132.157 107.62 131.707 107.302 131.135C106.989 130.564 106.833 129.912 106.833 129.179C106.833 128.446 107.019 127.786 107.391 127.198C107.763 126.605 108.256 126.136 108.87 125.791C109.485 125.441 110.159 125.266 110.892 125.266ZM110.892 127.368C110.557 127.368 110.25 127.449 109.97 127.61C109.695 127.772 109.474 127.99 109.307 128.265C109.145 128.54 109.064 128.845 109.064 129.179C109.064 129.513 109.145 129.82 109.307 130.101C109.469 130.375 109.687 130.596 109.962 130.764C110.237 130.925 110.541 131.006 110.875 131.006C111.21 131.006 111.514 130.925 111.789 130.764C112.069 130.596 112.29 130.375 112.452 130.101C112.619 129.82 112.703 129.513 112.703 129.179C112.703 128.855 112.622 128.556 112.46 128.281C112.298 128.007 112.08 127.786 111.805 127.618C111.53 127.451 111.226 127.368 110.892 127.368ZM117.053 139.317L117.183 138.396C117.442 138.417 117.652 138.374 117.813 138.266C117.975 138.164 118.086 138.013 118.145 137.814C118.21 137.62 118.223 137.393 118.185 137.135H117.053V134.935H119.253V137.135C119.253 137.911 119.072 138.498 118.711 138.897C118.35 139.296 117.797 139.436 117.053 139.317ZM125.727 137.345C125.145 137.345 124.59 137.229 124.062 136.997C123.533 136.76 123.073 136.428 122.679 136.003C122.291 135.577 122.013 135.076 121.846 134.499L123.981 133.933C124.094 134.359 124.315 134.69 124.644 134.927C124.978 135.159 125.339 135.275 125.727 135.275C126.061 135.275 126.366 135.194 126.641 135.032C126.921 134.871 127.142 134.652 127.304 134.378C127.471 134.103 127.554 133.798 127.554 133.464C127.554 132.963 127.382 132.534 127.037 132.178C126.697 131.817 126.261 131.637 125.727 131.637C125.565 131.637 125.409 131.661 125.258 131.709C125.107 131.753 124.962 131.815 124.822 131.895L123.835 130.165L127.538 127.093L127.7 127.562H122.299V125.492H129.576V127.562L126.697 130.343L126.681 129.729C127.35 129.831 127.913 130.066 128.371 130.432C128.834 130.793 129.185 131.241 129.422 131.774C129.665 132.302 129.786 132.866 129.786 133.464C129.786 134.197 129.6 134.857 129.228 135.445C128.856 136.027 128.363 136.49 127.748 136.835C127.134 137.175 126.46 137.345 125.727 137.345ZM135.345 137.377C134.758 137.377 134.205 137.256 133.688 137.013C133.176 136.771 132.734 136.434 132.362 136.003C131.99 135.571 131.723 135.07 131.562 134.499L133.68 133.933C133.75 134.208 133.874 134.445 134.052 134.644C134.235 134.844 134.445 135 134.682 135.113C134.925 135.221 135.173 135.275 135.426 135.275C135.76 135.275 136.065 135.194 136.34 135.032C136.62 134.871 136.841 134.652 137.003 134.378C137.17 134.103 137.253 133.798 137.253 133.464C137.253 133.13 137.17 132.825 137.003 132.55C136.841 132.275 136.62 132.057 136.34 131.895C136.065 131.734 135.76 131.653 135.426 131.653C135.017 131.653 134.682 131.723 134.424 131.863C134.165 131.998 133.971 132.127 133.842 132.251L131.982 131.685L132.338 125.492H138.693V127.546H133.551L134.327 126.818L134.084 130.812L133.712 130.359C134.003 130.122 134.335 129.95 134.707 129.842C135.079 129.734 135.426 129.68 135.75 129.68C136.483 129.68 137.127 129.845 137.682 130.173C138.242 130.497 138.679 130.944 138.992 131.515C139.31 132.081 139.469 132.731 139.469 133.464C139.469 134.197 139.277 134.86 138.895 135.453C138.512 136.04 138.008 136.509 137.383 136.86C136.758 137.205 136.078 137.377 135.345 137.377ZM145.724 137.377C144.862 137.377 144.107 137.197 143.461 136.835C142.814 136.474 142.31 135.97 141.949 135.323C141.588 134.677 141.407 133.922 141.407 133.06V129.567C141.407 128.705 141.588 127.95 141.949 127.303C142.31 126.656 142.814 126.152 143.461 125.791C144.107 125.43 144.862 125.25 145.724 125.25C146.587 125.25 147.341 125.43 147.988 125.791C148.635 126.152 149.139 126.656 149.5 127.303C149.861 127.95 150.042 128.705 150.042 129.567V133.06C150.042 133.922 149.861 134.677 149.5 135.323C149.139 135.97 148.635 136.474 147.988 136.835C147.341 137.197 146.587 137.377 145.724 137.377ZM145.724 135.291C146.112 135.291 146.463 135.2 146.775 135.016C147.088 134.833 147.336 134.585 147.519 134.272C147.702 133.96 147.794 133.609 147.794 133.221V129.389C147.794 129.001 147.702 128.651 147.519 128.338C147.336 128.025 147.088 127.777 146.775 127.594C146.463 127.411 146.112 127.319 145.724 127.319C145.336 127.319 144.986 127.411 144.673 127.594C144.361 127.777 144.113 128.025 143.929 128.338C143.746 128.651 143.655 129.001 143.655 129.389V133.221C143.655 133.609 143.746 133.96 143.929 134.272C144.113 134.585 144.361 134.833 144.673 135.016C144.986 135.2 145.336 135.291 145.724 135.291Z" fill="black"/>
<path d="M210.256 134.964C209.765 134.964 209.33 134.864 208.949 134.665C208.568 134.466 208.27 134.19 208.054 133.837C207.838 133.484 207.73 133.079 207.73 132.623C207.73 132.215 207.824 131.836 208.013 131.486C208.201 131.136 208.477 130.856 208.841 130.647L208.815 131.043C208.531 130.827 208.309 130.578 208.152 130.297C207.997 130.012 207.92 129.693 207.92 129.34C207.92 128.915 208.02 128.546 208.219 128.234C208.421 127.922 208.697 127.68 209.047 127.509C209.397 127.334 209.8 127.246 210.256 127.246C210.712 127.246 211.115 127.334 211.465 127.509C211.818 127.68 212.094 127.922 212.293 128.234C212.496 128.546 212.597 128.915 212.597 129.34C212.597 129.693 212.521 130.011 212.371 130.292C212.223 130.573 211.998 130.827 211.697 131.053L211.691 130.652C212.048 130.855 212.321 131.132 212.509 131.486C212.702 131.836 212.798 132.215 212.798 132.623C212.798 133.079 212.688 133.484 212.468 133.837C212.252 134.19 211.952 134.466 211.568 134.665C211.187 134.864 210.75 134.964 210.256 134.964ZM210.256 133.796C210.62 133.796 210.914 133.696 211.141 133.497C211.371 133.298 211.486 133.007 211.486 132.623C211.486 132.239 211.372 131.947 211.146 131.748C210.92 131.546 210.623 131.445 210.256 131.445C209.892 131.445 209.599 131.546 209.376 131.748C209.153 131.947 209.042 132.239 209.042 132.623C209.042 133.007 209.153 133.298 209.376 133.497C209.599 133.696 209.892 133.796 210.256 133.796ZM210.256 130.266C210.561 130.266 210.808 130.191 210.997 130.04C211.189 129.886 211.285 129.652 211.285 129.34C211.285 129.028 211.189 128.797 210.997 128.646C210.808 128.491 210.561 128.414 210.256 128.414C209.954 128.414 209.707 128.491 209.515 128.646C209.326 128.797 209.232 129.028 209.232 129.34C209.232 129.652 209.326 129.886 209.515 130.04C209.707 130.191 209.954 130.266 210.256 130.266ZM214.339 134.809V133.539H215.61V134.809H214.339ZM220.335 134.809V133.585H217.053V132.427L219.424 127.401H220.839L218.468 132.427H220.335V130.498H221.591V132.427H222.285V133.585H221.591V134.809H220.335ZM226.081 134.964C225.597 134.964 225.162 134.85 224.774 134.624C224.39 134.394 224.085 134.077 223.858 133.672C223.632 133.268 223.519 132.803 223.519 132.278V130.024C223.519 129.462 223.63 128.973 223.853 128.558C224.08 128.143 224.395 127.822 224.8 127.596C225.208 127.37 225.681 127.256 226.22 127.256C226.594 127.256 226.949 127.32 227.285 127.447C227.621 127.57 227.92 127.769 228.18 128.044L227.285 128.913C227.155 128.759 226.995 128.637 226.806 128.548C226.621 128.459 226.426 128.414 226.22 128.414C225.932 128.414 225.68 128.483 225.464 128.62C225.248 128.754 225.079 128.93 224.959 129.15C224.843 129.369 224.785 129.604 224.785 129.855V131.084L224.558 130.837C224.771 130.59 225.026 130.398 225.325 130.261C225.623 130.121 225.935 130.05 226.261 130.05C226.728 130.05 227.139 130.157 227.496 130.369C227.853 130.578 228.134 130.867 228.34 131.234C228.545 131.597 228.648 132.012 228.648 132.479C228.648 132.942 228.53 133.362 228.293 133.739C228.06 134.113 227.75 134.411 227.362 134.634C226.975 134.854 226.548 134.964 226.081 134.964ZM226.081 133.775C226.321 133.775 226.541 133.719 226.74 133.605C226.939 133.489 227.096 133.333 227.213 133.137C227.333 132.938 227.393 132.719 227.393 132.479C227.393 132.239 227.335 132.019 227.218 131.82C227.101 131.621 226.944 131.463 226.745 131.347C226.549 131.227 226.331 131.167 226.091 131.167C225.851 131.167 225.632 131.227 225.433 131.347C225.234 131.463 225.076 131.621 224.959 131.82C224.843 132.019 224.785 132.239 224.785 132.479C224.785 132.712 224.841 132.928 224.954 133.127C225.071 133.322 225.227 133.48 225.422 133.6C225.621 133.717 225.841 133.775 226.081 133.775ZM230.939 134.809L230.116 133.986L236.706 127.401L237.53 128.229L230.939 134.809ZM235.986 134.964C235.647 134.964 235.336 134.881 235.055 134.717C234.777 134.549 234.554 134.326 234.386 134.048C234.218 133.767 234.134 133.454 234.134 133.111C234.134 132.775 234.22 132.467 234.391 132.185C234.563 131.904 234.789 131.679 235.07 131.511C235.352 131.343 235.657 131.259 235.986 131.259C236.326 131.259 236.636 131.343 236.917 131.511C237.199 131.676 237.422 131.899 237.586 132.18C237.754 132.458 237.838 132.768 237.838 133.111C237.838 133.454 237.754 133.767 237.586 134.048C237.422 134.326 237.199 134.549 236.917 134.717C236.636 134.881 236.326 134.964 235.986 134.964ZM235.986 133.904C236.127 133.904 236.257 133.868 236.377 133.796C236.501 133.724 236.598 133.628 236.67 133.508C236.742 133.388 236.778 133.256 236.778 133.111C236.778 132.967 236.742 132.835 236.67 132.715C236.598 132.595 236.501 132.499 236.377 132.427C236.257 132.355 236.127 132.319 235.986 132.319C235.842 132.319 235.71 132.355 235.59 132.427C235.47 132.499 235.372 132.595 235.297 132.715C235.225 132.835 235.189 132.967 235.189 133.111C235.189 133.256 235.225 133.388 235.297 133.508C235.372 133.628 235.47 133.724 235.59 133.796C235.71 133.868 235.842 133.904 235.986 133.904ZM231.659 130.951C231.32 130.951 231.009 130.868 230.728 130.704C230.447 130.536 230.222 130.313 230.054 130.035C229.889 129.754 229.807 129.441 229.807 129.098C229.807 128.762 229.893 128.454 230.064 128.172C230.236 127.891 230.462 127.666 230.743 127.498C231.025 127.33 231.33 127.246 231.659 127.246C231.999 127.246 232.307 127.33 232.585 127.498C232.867 127.663 233.091 127.886 233.259 128.167C233.427 128.445 233.511 128.755 233.511 129.098C233.511 129.441 233.427 129.754 233.259 130.035C233.091 130.313 232.867 130.536 232.585 130.704C232.307 130.868 231.999 130.951 231.659 130.951ZM231.659 129.891C231.803 129.891 231.935 129.855 232.055 129.783C232.175 129.711 232.271 129.615 232.343 129.495C232.415 129.374 232.452 129.242 232.452 129.098C232.452 128.954 232.415 128.822 232.343 128.702C232.271 128.582 232.175 128.486 232.055 128.414C231.935 128.342 231.803 128.306 231.659 128.306C231.515 128.306 231.383 128.342 231.263 128.414C231.143 128.486 231.047 128.582 230.975 128.702C230.903 128.822 230.867 128.954 230.867 129.098C230.867 129.242 230.903 129.374 230.975 129.495C231.047 129.615 231.143 129.711 231.263 129.783C231.383 129.855 231.515 129.891 231.659 129.891Z" fill="#FDBC64"/>
<path d="M201.942 134.834V127.117M201.942 127.117L199.002 130.057M201.942 127.117L204.882 130.057" stroke="#FDBC64" stroke-width="1.47" stroke-linecap="round" stroke-linejoin="round"/>
<defs>
<filter id="filter0_d_1_625" x="0.919708" y="0.329674" width="343.245" height="264.6" filterUnits="userSpaceOnUse" color-interpolation-filters="sRGB">
<feFlood flood-opacity="0" result="BackgroundImageFix"/>
<feColorMatrix in="SourceAlpha" type="matrix" values="0 0 0 0 0 0 0 0 0 0 0 0 0 0 0 0 0 0 127 0" result="hardAlpha"/>
<feOffset dy="2.94"/>
<feGaussianBlur stdDeviation="45.5699"/>
<feComposite in2="hardAlpha" operator="out"/>
<feColorMatrix type="matrix" values="0 0 0 0 0 0 0 0 0 0 0 0 0 0 0 0 0 0 0.1 0"/>
<feBlend mode="normal" in2="BackgroundImageFix" result="effect1_dropShadow_1_625"/>
<feBlend mode="normal" in="SourceGraphic" in2="effect1_dropShadow_1_625" result="shape"/>
</filter>
</defs>
</svg>
