<svg width="280" height="242" viewBox="0 0 280 242" fill="none" xmlns="http://www.w3.org/2000/svg">
<g filter="url(#filter0_dddddd_1_588)">
<rect x="56.0596" y="1.52954" width="167.776" height="115.993" rx="6.90436" fill="white"/>
</g>
<path d="M66.5048 20.2673H67.597V14.4773H69.8106V13.5011C67.8677 13.5011 66.2244 13.5011 64.2816 13.5011V14.4773H66.5048V20.2673ZM71.7258 15.4053C70.2469 15.4053 69.2706 16.4879 69.2706 17.8895C69.2706 19.3007 70.2372 20.364 71.7258 20.364C73.2241 20.364 74.2003 19.3007 74.2003 17.8895C74.2003 16.4879 73.1951 15.4053 71.7258 15.4053ZM71.7258 16.3236C72.5958 16.3236 73.1951 17.0485 73.1951 17.8895C73.1951 18.7401 72.6441 19.436 71.7258 19.436C70.8172 19.436 70.2662 18.7401 70.2662 17.8895C70.2662 17.0485 70.8172 16.3236 71.7258 16.3236ZM75.709 14.2357V15.5116H74.7907V16.3719H75.709V18.6434C75.709 19.7647 76.2986 20.3543 77.3329 20.3253C77.6712 20.3253 77.9612 20.2577 78.2899 20.1127L77.9999 19.2621C77.8066 19.3587 77.5842 19.4264 77.3909 19.4264C76.9269 19.4264 76.7046 19.1461 76.7046 18.6434V16.3719H78.1062V15.5116H76.7143V14.1294L75.709 14.2357ZM82.9124 16.2559C82.6128 15.7146 81.9652 15.3956 81.2885 15.3956C79.916 15.3956 78.8237 16.2849 78.8237 17.8798C78.8237 19.5037 79.8773 20.4027 81.2692 20.393C81.8588 20.393 82.5935 20.103 82.9124 19.494L82.9608 20.2673H83.9081C83.9081 18.6821 83.9081 17.0872 83.9081 15.5019H82.9414L82.9124 16.2559ZM81.3659 16.3042C83.4248 16.3042 83.4248 19.465 81.3659 19.465C80.5153 19.465 79.8193 18.8657 79.8193 17.8798C79.8193 16.9035 80.5153 16.3042 81.3659 16.3042ZM85.2975 13.5107V20.2673H86.2931V13.5107H85.2975ZM91.3388 17.2708C92.0251 17.2708 92.6921 17.2708 93.3783 17.2708C93.997 17.2708 94.7993 17.5995 94.7993 18.3244C94.7993 19.0687 93.968 19.2621 93.3687 19.2621H91.3388V17.2708ZM91.3388 14.4773L93.3687 14.4773C94.1806 14.4773 94.5963 14.98 94.5963 15.4536C94.5963 15.9852 94.1903 16.3042 93.3783 16.3042H91.3388V14.4773ZM90.2659 13.5011V20.2673C91.3195 20.2673 92.3151 20.2673 93.3687 20.2673C94.7026 20.2673 95.8819 19.813 95.8819 18.3341C95.8819 17.8218 95.5436 17.0195 94.7316 16.7779C95.3696 16.5169 95.6692 16.0046 95.6692 15.4343C95.6692 14.0907 94.6543 13.5011 93.3687 13.5011H90.2659ZM100.763 16.2559C100.463 15.7146 99.8154 15.3956 99.1387 15.3956C97.7662 15.3956 96.6739 16.2849 96.6739 17.8798C96.6739 19.5037 97.7275 20.4027 99.1194 20.393C99.709 20.393 100.444 20.103 100.763 19.494L100.811 20.2673H101.758C101.758 18.6821 101.758 17.0872 101.758 15.5019H100.792L100.763 16.2559ZM99.2161 16.3042C101.275 16.3042 101.275 19.465 99.2161 19.465C98.3655 19.465 97.6695 18.8657 97.6695 17.8798C97.6695 16.9035 98.3655 16.3042 99.2161 16.3042ZM103.148 13.5107V20.2673H104.143V13.5107H103.148ZM109.334 16.2559C109.034 15.7146 108.386 15.3956 107.71 15.3956C106.337 15.3956 105.245 16.2849 105.245 17.8798C105.245 19.5037 106.299 20.4027 107.691 20.393C108.28 20.393 109.015 20.103 109.334 19.494L109.382 20.2673H110.329C110.329 18.6821 110.329 17.0872 110.329 15.5019H109.363L109.334 16.2559ZM107.787 16.3042C109.846 16.3042 109.846 19.465 107.787 19.465C106.937 19.465 106.241 18.8657 106.241 17.8798C106.241 16.9035 106.937 16.3042 107.787 16.3042ZM116.301 20.2673V17.7058C116.301 16.2462 115.411 15.4246 114.251 15.4246C113.633 15.4246 113.101 15.6759 112.647 16.1882L112.589 15.4923H111.68V20.2673H112.676V17.7735C112.676 16.9905 113.217 16.3429 114.01 16.3429C114.831 16.3429 115.295 16.8939 115.295 17.7155V20.2673H116.301ZM120.934 18.9817C120.625 19.3007 120.209 19.4264 119.803 19.4264C118.981 19.4264 118.285 18.8947 118.285 17.8895C118.285 16.9422 118.952 16.3332 119.813 16.3332C120.19 16.3332 120.586 16.4686 120.886 16.7585L121.524 16.0916C121.011 15.5889 120.46 15.386 119.803 15.386C118.421 15.386 117.29 16.2462 117.29 17.8895C117.29 19.5327 118.43 20.393 119.803 20.393C120.489 20.393 121.079 20.1707 121.611 19.6487L120.934 18.9817ZM126.995 18.2568C127.179 16.3139 126.135 15.3763 124.598 15.3763C123.11 15.3763 122.095 16.4106 122.095 17.8605C122.095 19.3877 123.1 20.3833 124.666 20.3833C125.4 20.3833 126.222 20.1127 126.715 19.5714L126.067 18.9431C125.777 19.2717 125.168 19.4554 124.685 19.4554C123.815 19.4554 123.216 18.9817 123.129 18.2568H126.995ZM123.148 17.4158C123.303 16.6619 123.902 16.2656 124.627 16.2656C125.429 16.2656 125.98 16.6619 126.038 17.4158H123.148Z" fill="black"/>
<path d="M74.0878 33.0987C73.5907 32.0824 72.729 31.7289 71.79 31.5853V30.6242H70.387V31.5853C69.1056 31.74 67.8241 32.4028 67.8241 33.8499C67.8241 35.6837 69.3707 35.9599 70.9504 36.1367C71.9778 36.2582 72.8947 36.5233 72.8947 37.2524C72.8947 38.1141 71.9778 38.4565 70.9836 38.4565C70.0667 38.4565 69.0835 38.0036 68.7852 37.2966L67.4817 37.8489C68.0009 39.0641 69.1498 39.6275 70.387 39.738V40.7874H71.79V39.6827C73.1598 39.5833 74.4081 38.7437 74.4081 37.2524C74.4081 35.3081 72.6848 35.0209 71.0719 34.8221C70.144 34.7116 69.2713 34.579 69.2713 33.8499C69.2713 33.0766 70.1109 32.8115 71.0278 32.8115C71.79 32.8115 72.6075 33.1761 72.8947 33.6511L74.0878 33.0987ZM78.5866 31.8062L75.1068 36.5785L75.2393 38.0588H79.3709V39.5281H80.807V38.0588H81.7129V36.6448H80.807V31.8062H78.5866ZM76.7528 36.6448L79.3709 33.0656V36.6448H76.7528ZM84.3748 38.9536C84.3748 37.9484 82.8062 37.9042 82.8062 38.9205C82.8062 39.2629 83.0161 39.4618 83.3254 39.517L83.1155 40.6107H83.8777C84.3859 39.0531 84.3748 39.0862 84.3748 38.9536ZM87.0698 34.0377C87.1029 33.2644 87.9756 32.9551 88.8262 32.9551C89.7211 32.9883 90.3839 33.2644 90.3839 34.1151C90.3839 35.0099 89.3123 35.1866 88.7268 35.1866C87.2023 35.1866 85.5895 35.7169 85.5895 37.4954C85.5895 38.1803 85.5895 38.8542 85.5895 39.5281H91.8531V38.1693H87.0477V37.5065C87.0477 36.6669 88.0861 36.5012 88.7268 36.5012C90.3507 36.5012 91.831 36.0483 91.831 34.0819C91.831 32.2702 90.2734 31.6958 88.8262 31.6958C87.346 31.6958 85.7662 32.215 85.6226 34.0377H87.0698ZM94.5125 35.0651C94.5125 32.2702 98.2685 32.3034 98.2685 35.0651V36.2582C98.2685 39.0641 94.5125 39.0641 94.5125 36.2582V35.0651ZM93.0654 36.2582C93.0654 40.8758 99.7156 40.8648 99.7156 36.2582V35.0651C99.7156 30.4585 93.0654 30.4475 93.0654 35.0651V36.2582ZM102.355 35.0651C102.355 32.2702 106.111 32.3034 106.111 35.0651V36.2582C106.111 39.0641 102.355 39.0641 102.355 36.2582V35.0651ZM100.908 36.2582C100.908 40.8758 107.559 40.8648 107.559 36.2582V35.0651C107.559 30.4585 100.908 30.4475 100.908 35.0651V36.2582Z" fill="black"/>
<path d="M107.546 33.6818V34.5435H108.929V35.9437H109.853V34.5435H111.244V33.6818H109.853V32.2996H108.929V33.6818H107.546ZM112.106 37.2183H115.328V36.3835H114.233V30.9353L112.16 31.5905V32.4701L113.237 32.165V36.3835H112.106V37.2183ZM119.193 30.9443L115.746 35.0641L115.872 35.9706H119.354V37.2183H120.351V35.9706H121.095V35.0372H120.351V30.9443H119.193ZM116.868 35.0372L119.354 32.1111V35.0372H116.868ZM123.224 30.8545C121.348 30.8545 121.348 33.5831 123.224 33.5831C125.109 33.5831 125.109 30.8545 123.224 30.8545ZM126.428 30.9173L122.362 37.2183H123.26L127.317 30.9173H126.428ZM123.215 31.5187C124.157 31.5187 124.166 32.9099 123.233 32.9099C122.281 32.9099 122.272 31.5187 123.215 31.5187ZM126.428 34.5525C124.552 34.5525 124.552 37.2811 126.428 37.2811C128.313 37.2811 128.313 34.5525 126.428 34.5525ZM126.419 35.2167C127.361 35.2167 127.37 36.6079 126.437 36.6079C125.486 36.6079 125.477 35.2167 126.419 35.2167Z" fill="#00E1F0"/>
<path d="M65.9022 54.5505H67.8851V54.0369L67.2112 54.0369V50.6841L65.9353 51.0873V51.6286L66.5981 51.4408L66.5981 54.0369H65.9022V54.5505ZM68.9543 52.2804C68.9543 50.8167 70.9538 50.8332 70.9538 52.2804V52.9542C70.9538 54.4235 68.9543 54.4235 68.9543 52.9542V52.2804ZM68.3356 52.9542C68.3356 55.1968 71.5724 55.1913 71.5724 52.9542V52.2804C71.5724 50.0434 68.3356 50.0378 68.3356 52.2804V52.9542ZM72.275 50.6896V54.5505H72.8494V53.2912L74.0149 54.5505H74.7108V54.5119L73.3741 53.1089L74.5506 51.8606V51.8275H73.8602L72.8494 52.9432V50.6896H72.275Z" fill="#718EBF"/>
<path d="M71.2354 63.8078L69.1144 66.3431L69.1917 66.9009L71.3348 66.9009V67.6687H71.948V66.9009H72.4064V66.3265H71.948V63.8078H71.2354ZM69.8048 66.3265L71.3348 64.5258V66.3265H69.8048ZM73.0367 63.8078V67.6687H73.6111V66.4093L74.7766 67.6687H75.4725V67.63L74.1359 66.2271L75.3124 64.9788V64.9456H74.6219L73.6111 66.0614V63.8078H73.0367Z" fill="#718EBF"/>
<path d="M68.8786 78.0201C68.8896 77.5672 69.3867 77.407 69.8341 77.407C70.3036 77.4235 70.7234 77.5727 70.7234 78.0588C70.7234 78.5614 70.1435 78.6719 69.7955 78.6719C69.0443 78.6719 68.2434 78.9259 68.2434 79.8097C68.2434 80.1356 68.2434 80.4615 68.2434 80.7874H71.331V80.2074H68.8399V79.8097C68.8399 79.3126 69.4199 79.2187 69.801 79.2187C70.5798 79.2187 71.331 78.9812 71.331 78.0477C71.331 77.1584 70.5522 76.8712 69.8341 76.8712C69.105 76.8712 68.3152 77.1308 68.2599 78.0201H68.8786ZM72.0369 76.9264V80.7874H72.6114V79.528L73.7768 80.7874H74.4728V80.7487L73.1361 79.3457L74.3126 78.0974V78.0643H73.6222L72.6114 79.18V76.9264H72.0369Z" fill="#718EBF"/>
<path d="M71.6248 92.3258C71.6248 90.8621 73.6243 90.8786 73.6243 92.3258V92.9997C73.6243 94.4689 71.6248 94.4689 71.6248 92.9997V92.3258ZM71.0062 92.9997C71.0062 95.2422 74.2429 95.2367 74.2429 92.9997V92.3258C74.2429 90.0888 71.0062 90.0833 71.0062 92.3258V92.9997Z" fill="#718EBF"/>
<path d="M89.1896 99.5562C88.8637 99.037 88.3059 98.9044 87.748 98.9044C87.052 98.9044 86.2511 99.2138 86.2566 100.015C86.2566 100.843 86.9857 101.037 87.7535 101.141C88.2948 101.213 88.7422 101.357 88.7422 101.777C88.7422 102.263 88.2285 102.417 87.7646 102.417C87.3171 102.417 86.8366 102.252 86.5604 101.782L86.0965 102.091C86.45 102.743 87.0189 102.97 87.759 102.97C88.5655 102.97 89.3553 102.644 89.3608 101.777C89.3608 100.909 88.6041 100.689 87.8087 100.578C87.3006 100.506 86.8697 100.401 86.8697 100.026C86.8697 99.6556 87.2453 99.4402 87.7646 99.4402C88.1678 99.4457 88.5378 99.6059 88.7201 99.871L89.1896 99.5562Z" fill="#718EBF"/>
<path d="M80.2249 90.5962C80.2249 89.4523 81.1522 88.5249 82.2962 88.5249H91.9623C93.1062 88.5249 94.0336 89.4523 94.0336 90.5962V96.8101H80.2249V90.5962Z" fill="#E8F2FF"/>
<path d="M105.5 102.887H106.118V99.0202H105.4L104.13 100.832L102.854 99.0202C102.606 99.0202 102.379 99.0202 102.136 99.0202V102.887H102.755L102.755 99.9205L104.053 101.749H104.185L105.5 99.9205V102.887Z" fill="#718EBF"/>
<path d="M96.7955 86.4534C96.7955 85.3094 97.7229 84.3821 98.8668 84.3821H108.533C109.677 84.3821 110.604 85.3094 110.604 86.4534V96.8099H96.7955V86.4534Z" fill="#E8F2FF"/>
<path d="M119.579 102.882H120.204V99.573H121.469V99.0151C120.358 99.0151 119.419 99.0151 118.309 99.0151V99.573H119.579V102.882Z" fill="#718EBF"/>
<path d="M113.366 69.8831C113.366 68.7391 114.294 67.8118 115.438 67.8118H125.104C126.248 67.8118 127.175 68.7391 127.175 69.8831V96.8101H113.366V69.8831Z" fill="#E8F2FF"/>
<path d="M139.945 99.0149H139.255L138.294 101.992L137.272 99.0149H136.874L135.875 101.992L134.891 99.0149H134.201L135.604 102.887H136.145L136.653 101.528L137.079 100.225L137.504 101.523L138.018 102.887H138.565L139.945 99.0149Z" fill="#718EBF"/>
<path d="M129.937 77.478C129.937 76.3341 130.864 75.4067 132.008 75.4067H141.674C142.818 75.4067 143.745 76.3341 143.745 77.478V96.8103H129.937V77.478Z" fill="#3734A9"/>
<path d="M152.72 102.881H153.344V99.5728H154.609V99.0149C153.499 99.0149 152.56 99.0149 151.449 99.0149V99.5728H152.72L152.72 102.881Z" fill="#718EBF"/>
<path d="M146.507 58.1455C146.507 57.0016 147.434 56.0742 148.578 56.0742H158.244C159.388 56.0742 160.316 57.0016 160.316 58.1455V96.8099H146.507V58.1455Z" fill="#3734A9"/>
<path d="M169.668 102.882V101.374H171.678V100.799H169.668V99.623H171.783V99.0209H169.049V102.882H169.668Z" fill="#718EBF"/>
<path d="M163.078 90.5965C163.078 89.4525 164.005 88.5251 165.149 88.5251H174.815C175.959 88.5251 176.886 89.4525 176.886 90.5965V96.8104H163.078V90.5965Z" fill="#E8F2FF"/>
<path d="M188.613 99.5562C188.287 99.037 187.729 98.9044 187.171 98.9044C186.475 98.9044 185.675 99.2138 185.68 100.015C185.68 100.843 186.409 101.037 187.177 101.141C187.718 101.213 188.166 101.357 188.166 101.777C188.166 102.263 187.652 102.417 187.188 102.417C186.741 102.417 186.26 102.252 185.984 101.782L185.52 102.091C185.873 102.743 186.442 102.97 187.182 102.97C187.989 102.97 188.779 102.644 188.784 101.777C188.784 100.909 188.028 100.689 187.232 100.578C186.724 100.506 186.293 100.401 186.293 100.026C186.293 99.6556 186.669 99.4402 187.188 99.4402C187.591 99.4457 187.961 99.6059 188.144 99.871L188.613 99.5562Z" fill="#718EBF"/>
<path d="M179.648 77.4776C179.648 76.3336 180.576 75.4062 181.72 75.4062H191.386C192.53 75.4062 193.457 76.3336 193.457 77.4776V96.8098H179.648V77.4776Z" fill="#3734A9"/>
<path d="M205.874 99.5565C205.548 99.0372 204.99 98.9047 204.432 98.9047C203.736 98.9047 202.935 99.214 202.941 100.015C202.941 100.843 203.67 101.037 204.437 101.142C204.979 101.213 205.426 101.357 205.426 101.777C205.426 102.263 204.912 102.418 204.449 102.418C204.001 102.418 203.521 102.252 203.244 101.782L202.78 102.092C203.134 102.744 203.703 102.97 204.443 102.97C205.249 102.97 206.039 102.644 206.045 101.777C206.045 100.91 205.288 100.689 204.493 100.578C203.985 100.506 203.554 100.402 203.554 100.026C203.554 99.6559 203.929 99.4405 204.449 99.4405C204.852 99.446 205.222 99.6062 205.404 99.8713L205.874 99.5565Z" fill="#718EBF"/>
<path d="M196.218 67.1214C196.218 65.9774 197.146 65.05 198.29 65.05H207.956C209.1 65.05 210.027 65.9774 210.027 67.1214V96.8101H196.218V67.1214Z" fill="#3734A9"/>
<defs>
<filter id="filter0_dddddd_1_588" x="0.824688" y="0.634531" width="278.246" height="241.167" filterUnits="userSpaceOnUse" color-interpolation-filters="sRGB">
<feFlood flood-opacity="0" result="BackgroundImageFix"/>
<feColorMatrix in="SourceAlpha" type="matrix" values="0 0 0 0 0 0 0 0 0 0 0 0 0 0 0 0 0 0 127 0" result="hardAlpha"/>
<feOffset dy="1.27859"/>
<feGaussianBlur stdDeviation="1.0868"/>
<feColorMatrix type="matrix" values="0 0 0 0 0 0 0 0 0 0 0 0 0 0 0 0 0 0 0.01 0"/>
<feBlend mode="normal" in2="BackgroundImageFix" result="effect1_dropShadow_1_588"/>
<feColorMatrix in="SourceAlpha" type="matrix" values="0 0 0 0 0 0 0 0 0 0 0 0 0 0 0 0 0 0 127 0" result="hardAlpha"/>
<feOffset dy="5.62578"/>
<feGaussianBlur stdDeviation="2.25031"/>
<feColorMatrix type="matrix" values="0 0 0 0 0 0 0 0 0 0 0 0 0 0 0 0 0 0 0.0117778 0"/>
<feBlend mode="normal" in2="effect1_dropShadow_1_588" result="effect2_dropShadow_1_588"/>
<feColorMatrix in="SourceAlpha" type="matrix" values="0 0 0 0 0 0 0 0 0 0 0 0 0 0 0 0 0 0 127 0" result="hardAlpha"/>
<feOffset dy="13.8087"/>
<feGaussianBlur stdDeviation="4.48783"/>
<feColorMatrix type="matrix" values="0 0 0 0 0 0 0 0 0 0 0 0 0 0 0 0 0 0 0.015 0"/>
<feBlend mode="normal" in2="effect2_dropShadow_1_588" result="effect3_dropShadow_1_588"/>
<feColorMatrix in="SourceAlpha" type="matrix" values="0 0 0 0 0 0 0 0 0 0 0 0 0 0 0 0 0 0 127 0" result="hardAlpha"/>
<feOffset dy="26.5946"/>
<feGaussianBlur stdDeviation="8.79667"/>
<feColorMatrix type="matrix" values="0 0 0 0 0 0 0 0 0 0 0 0 0 0 0 0 0 0 0.0182222 0"/>
<feBlend mode="normal" in2="effect3_dropShadow_1_588" result="effect4_dropShadow_1_588"/>
<feColorMatrix in="SourceAlpha" type="matrix" values="0 0 0 0 0 0 0 0 0 0 0 0 0 0 0 0 0 0 127 0" result="hardAlpha"/>
<feOffset dy="44.7505"/>
<feGaussianBlur stdDeviation="16.1741"/>
<feColorMatrix type="matrix" values="0 0 0 0 0 0 0 0 0 0 0 0 0 0 0 0 0 0 0.0227778 0"/>
<feBlend mode="normal" in2="effect4_dropShadow_1_588" result="effect5_dropShadow_1_588"/>
<feColorMatrix in="SourceAlpha" type="matrix" values="0 0 0 0 0 0 0 0 0 0 0 0 0 0 0 0 0 0 127 0" result="hardAlpha"/>
<feOffset dy="69.0436"/>
<feGaussianBlur stdDeviation="27.6174"/>
<feColorMatrix type="matrix" values="0 0 0 0 0 0 0 0 0 0 0 0 0 0 0 0 0 0 0.03 0"/>
<feBlend mode="normal" in2="effect5_dropShadow_1_588" result="effect6_dropShadow_1_588"/>
<feBlend mode="normal" in="SourceGraphic" in2="effect6_dropShadow_1_588" result="shape"/>
</filter>
</defs>
</svg>
