<svg width="57" height="56" viewBox="0 0 57 56" fill="none" xmlns="http://www.w3.org/2000/svg">
<path d="M49.7214 37.3333H42.8614C39.8981 37.3333 38.1248 39.1066 38.1248 42.07V48.93C38.1248 51.8933 39.8981 53.6666 42.8614 53.6666H49.7214C52.6848 53.6666 54.4581 51.8933 54.4581 48.93V42.07C54.4581 39.1066 52.6848 37.3333 49.7214 37.3333ZM51.2614 43.05L45.7314 49.5133C45.4981 49.77 45.1948 49.9333 44.8448 49.9333C44.8448 49.9333 44.8214 49.9333 44.7981 49.9333C44.4948 49.9333 44.1681 49.8166 43.9581 49.5833L41.3914 47.0633C40.9248 46.5966 40.9248 45.8266 41.3914 45.3366C41.8581 44.87 42.6281 44.87 43.1181 45.3366L44.7281 46.9466L49.4181 41.4866C49.8381 40.9733 50.6081 40.9033 51.1214 41.3466C51.6348 41.79 51.6814 42.56 51.2614 43.05Z" fill="#F62C84"/>
<path d="M49.7214 37.3333H42.8614C39.8981 37.3333 38.1248 39.1066 38.1248 42.07V48.93C38.1248 51.8933 39.8981 53.6666 42.8614 53.6666H49.7214C52.6848 53.6666 54.4581 51.8933 54.4581 48.93V42.07C54.4581 39.1066 52.6848 37.3333 49.7214 37.3333ZM51.2614 43.05L45.7314 49.5133C45.4981 49.77 45.1948 49.9333 44.8448 49.9333C44.8448 49.9333 44.8214 49.9333 44.7981 49.9333C44.4948 49.9333 44.1681 49.8166 43.9581 49.5833L41.3914 47.0633C40.9248 46.5966 40.9248 45.8266 41.3914 45.3366C41.8581 44.87 42.6281 44.87 43.1181 45.3366L44.7281 46.9466L49.4181 41.4866C49.8381 40.9733 50.6081 40.9033 51.1214 41.3466C51.6348 41.79 51.6814 42.56 51.2614 43.05Z" fill="url(#paint0_linear_1_501)"/>
<path d="M49.7214 37.3333H42.8614C39.8981 37.3333 38.1248 39.1066 38.1248 42.07V48.93C38.1248 51.8933 39.8981 53.6666 42.8614 53.6666H49.7214C52.6848 53.6666 54.4581 51.8933 54.4581 48.93V42.07C54.4581 39.1066 52.6848 37.3333 49.7214 37.3333ZM51.2614 43.05L45.7314 49.5133C45.4981 49.77 45.1948 49.9333 44.8448 49.9333C44.8448 49.9333 44.8214 49.9333 44.7981 49.9333C44.4948 49.9333 44.1681 49.8166 43.9581 49.5833L41.3914 47.0633C40.9248 46.5966 40.9248 45.8266 41.3914 45.3366C41.8581 44.87 42.6281 44.87 43.1181 45.3366L44.7281 46.9466L49.4181 41.4866C49.8381 40.9733 50.6081 40.9033 51.1214 41.3466C51.6348 41.79 51.6814 42.56 51.2614 43.05Z" fill="#F62C84"/>
<path d="M49.7214 37.3333H42.8614C39.8981 37.3333 38.1248 39.1066 38.1248 42.07V48.93C38.1248 51.8933 39.8981 53.6666 42.8614 53.6666H49.7214C52.6848 53.6666 54.4581 51.8933 54.4581 48.93V42.07C54.4581 39.1066 52.6848 37.3333 49.7214 37.3333ZM51.2614 43.05L45.7314 49.5133C45.4981 49.77 45.1948 49.9333 44.8448 49.9333C44.8448 49.9333 44.8214 49.9333 44.7981 49.9333C44.4948 49.9333 44.1681 49.8166 43.9581 49.5833L41.3914 47.0633C40.9248 46.5966 40.9248 45.8266 41.3914 45.3366C41.8581 44.87 42.6281 44.87 43.1181 45.3366L44.7281 46.9466L49.4181 41.4866C49.8381 40.9733 50.6081 40.9033 51.1214 41.3466C51.6348 41.79 51.6814 42.56 51.2614 43.05Z" fill="url(#paint1_linear_1_501)"/>
<path d="M52.0549 16.8233C51.4016 10.4533 46.3383 5.38999 39.9683 4.73666C39.5016 4.68999 39.0349 4.66666 38.5683 4.66666H19.0149C18.5483 4.66666 18.0816 4.68999 17.6149 4.73666C11.2449 5.38999 6.18159 10.4533 5.52825 16.8233C5.48159 17.29 5.45825 17.7567 5.45825 18.2233V37.7767C5.45825 38.2433 5.48159 38.71 5.52825 39.1767C6.18159 45.5467 11.2449 50.61 17.6149 51.2633C18.0816 51.31 18.5483 51.3333 19.0149 51.3333H33.4583C34.7416 51.3333 35.7916 50.2833 35.7916 49V42.07C35.7916 38.1733 38.9649 35 42.8616 35H49.7916C51.0749 35 52.1249 33.95 52.1249 32.6667V18.2233C52.1249 17.7567 52.1016 17.29 52.0549 16.8233ZM18.8749 31.5C18.8749 32.4567 18.0816 33.25 17.1249 33.25C16.1683 33.25 15.3749 32.4567 15.3749 31.5V24.5C15.3749 23.5433 16.1683 22.75 17.1249 22.75C18.0816 22.75 18.8749 23.5433 18.8749 24.5V31.5ZM30.5416 31.5C30.5416 32.4567 29.7483 33.25 28.7916 33.25C27.8349 33.25 27.0416 32.4567 27.0416 31.5V24.5C27.0416 23.5433 27.8349 22.75 28.7916 22.75C29.7483 22.75 30.5416 23.5433 30.5416 24.5V31.5Z" fill="#F62C84"/>
<path d="M52.0549 16.8233C51.4016 10.4533 46.3383 5.38999 39.9683 4.73666C39.5016 4.68999 39.0349 4.66666 38.5683 4.66666H19.0149C18.5483 4.66666 18.0816 4.68999 17.6149 4.73666C11.2449 5.38999 6.18159 10.4533 5.52825 16.8233C5.48159 17.29 5.45825 17.7567 5.45825 18.2233V37.7767C5.45825 38.2433 5.48159 38.71 5.52825 39.1767C6.18159 45.5467 11.2449 50.61 17.6149 51.2633C18.0816 51.31 18.5483 51.3333 19.0149 51.3333H33.4583C34.7416 51.3333 35.7916 50.2833 35.7916 49V42.07C35.7916 38.1733 38.9649 35 42.8616 35H49.7916C51.0749 35 52.1249 33.95 52.1249 32.6667V18.2233C52.1249 17.7567 52.1016 17.29 52.0549 16.8233ZM18.8749 31.5C18.8749 32.4567 18.0816 33.25 17.1249 33.25C16.1683 33.25 15.3749 32.4567 15.3749 31.5V24.5C15.3749 23.5433 16.1683 22.75 17.1249 22.75C18.0816 22.75 18.8749 23.5433 18.8749 24.5V31.5ZM30.5416 31.5C30.5416 32.4567 29.7483 33.25 28.7916 33.25C27.8349 33.25 27.0416 32.4567 27.0416 31.5V24.5C27.0416 23.5433 27.8349 22.75 28.7916 22.75C29.7483 22.75 30.5416 23.5433 30.5416 24.5V31.5Z" fill="url(#paint2_linear_1_501)"/>
<defs>
<linearGradient id="paint0_linear_1_501" x1="38.1248" y1="45.5" x2="63.6456" y2="25.9765" gradientUnits="userSpaceOnUse">
<stop stop-color="#FF358D"/>
<stop offset="1" stop-color="#C432FF"/>
</linearGradient>
<linearGradient id="paint1_linear_1_501" x1="38.1248" y1="45.5" x2="63.6456" y2="25.9765" gradientUnits="userSpaceOnUse">
<stop stop-color="#FF358D"/>
<stop offset="1" stop-color="#C432FF"/>
</linearGradient>
<linearGradient id="paint2_linear_1_501" x1="5.45825" y1="28" x2="78.3749" y2="-27.7813" gradientUnits="userSpaceOnUse">
<stop stop-color="#FF358D"/>
<stop offset="1" stop-color="#C432FF"/>
</linearGradient>
</defs>
</svg>
