<svg width="57" height="56" viewBox="0 0 57 56" fill="none" xmlns="http://www.w3.org/2000/svg">
<path d="M26.4581 37.6833V43.9833C26.4581 49.2333 24.3581 51.3333 19.1081 51.3333H12.8081C7.55813 51.3333 5.45813 49.2333 5.45813 43.9833V37.6833C5.45813 32.4333 7.55813 30.3333 12.8081 30.3333H19.1081C24.3581 30.3333 26.4581 32.4333 26.4581 37.6833Z" fill="#F62C84"/>
<path d="M26.4581 37.6833V43.9833C26.4581 49.2333 24.3581 51.3333 19.1081 51.3333H12.8081C7.55813 51.3333 5.45813 49.2333 5.45813 43.9833V37.6833C5.45813 32.4333 7.55813 30.3333 12.8081 30.3333H19.1081C24.3581 30.3333 26.4581 32.4333 26.4581 37.6833Z" fill="url(#paint0_linear_1_469)"/>
<path d="M41.6249 25.6667C47.4239 25.6667 52.1249 20.9657 52.1249 15.1667C52.1249 9.3677 47.4239 4.66669 41.6249 4.66669C35.8259 4.66669 31.1249 9.3677 31.1249 15.1667C31.1249 20.9657 35.8259 25.6667 41.6249 25.6667Z" fill="#F62C84"/>
<path d="M41.6249 25.6667C47.4239 25.6667 52.1249 20.9657 52.1249 15.1667C52.1249 9.3677 47.4239 4.66669 41.6249 4.66669C35.8259 4.66669 31.1249 9.3677 31.1249 15.1667C31.1249 20.9657 35.8259 25.6667 41.6249 25.6667Z" fill="url(#paint1_linear_1_469)"/>
<path d="M35.2782 51.3333C34.6482 51.3333 34.0649 50.9833 33.7615 50.4467C33.4582 49.8867 33.4582 49.2333 33.7849 48.6733L36.0482 44.8933C36.5382 44.0533 37.6115 43.7966 38.4515 44.2866C39.2915 44.7766 39.5482 45.85 39.0582 46.69L38.6382 47.39C44.4015 45.8966 48.6482 40.67 48.6482 34.4633C48.6482 33.5067 49.4415 32.7133 50.3982 32.7133C51.3549 32.7133 52.1249 33.5066 52.1249 34.4866C52.1249 43.7733 44.5649 51.3333 35.2782 51.3333Z" fill="#F62C84"/>
<path d="M35.2782 51.3333C34.6482 51.3333 34.0649 50.9833 33.7615 50.4467C33.4582 49.8867 33.4582 49.2333 33.7849 48.6733L36.0482 44.8933C36.5382 44.0533 37.6115 43.7966 38.4515 44.2866C39.2915 44.7766 39.5482 45.85 39.0582 46.69L38.6382 47.39C44.4015 45.8966 48.6482 40.67 48.6482 34.4633C48.6482 33.5067 49.4415 32.7133 50.3982 32.7133C51.3549 32.7133 52.1249 33.5066 52.1249 34.4866C52.1249 43.7733 44.5649 51.3333 35.2782 51.3333Z" fill="url(#paint2_linear_1_469)"/>
<path d="M7.20813 23.2634C6.25146 23.2634 5.45813 22.4934 5.45813 21.5134C5.45813 12.2267 13.0181 4.66669 22.3048 4.66669C22.9581 4.66669 23.5181 5.01669 23.8448 5.55335C24.1481 6.11335 24.1481 6.76669 23.8215 7.32669L21.5581 11.0834C21.0448 11.9234 19.9715 12.2034 19.1548 11.69C18.3148 11.2 18.0581 10.1267 18.5481 9.28669L18.9681 8.58669C13.2281 10.08 8.95813 15.3067 8.95813 21.5134C8.95813 22.4934 8.1648 23.2634 7.20813 23.2634Z" fill="#F62C84"/>
<path d="M7.20813 23.2634C6.25146 23.2634 5.45813 22.4934 5.45813 21.5134C5.45813 12.2267 13.0181 4.66669 22.3048 4.66669C22.9581 4.66669 23.5181 5.01669 23.8448 5.55335C24.1481 6.11335 24.1481 6.76669 23.8215 7.32669L21.5581 11.0834C21.0448 11.9234 19.9715 12.2034 19.1548 11.69C18.3148 11.2 18.0581 10.1267 18.5481 9.28669L18.9681 8.58669C13.2281 10.08 8.95813 15.3067 8.95813 21.5134C8.95813 22.4934 8.1648 23.2634 7.20813 23.2634Z" fill="url(#paint3_linear_1_469)"/>
<defs>
<linearGradient id="paint0_linear_1_469" x1="5.45813" y1="40.8333" x2="36.3019" y2="20.1614" gradientUnits="userSpaceOnUse">
<stop stop-color="#FF358D"/>
<stop offset="1" stop-color="#C432FF"/>
</linearGradient>
<linearGradient id="paint1_linear_1_469" x1="31.1249" y1="15.1667" x2="61.9686" y2="-5.50519" gradientUnits="userSpaceOnUse">
<stop stop-color="#FF358D"/>
<stop offset="1" stop-color="#C432FF"/>
</linearGradient>
<linearGradient id="paint2_linear_1_469" x1="33.5369" y1="42.0233" x2="60.8671" y2="23.7377" gradientUnits="userSpaceOnUse">
<stop stop-color="#FF358D"/>
<stop offset="1" stop-color="#C432FF"/>
</linearGradient>
<linearGradient id="paint3_linear_1_469" x1="5.45813" y1="13.965" x2="32.7802" y2="-4.36099" gradientUnits="userSpaceOnUse">
<stop stop-color="#FF358D"/>
<stop offset="1" stop-color="#C432FF"/>
</linearGradient>
</defs>
</svg>
