<svg width="57" height="56" viewBox="0 0 57 56" fill="none" xmlns="http://www.w3.org/2000/svg">
<path d="M37.6583 5.15669C36.7016 4.20002 35.0449 4.85336 35.0449 6.18336V14.3267C35.0449 17.7334 37.9383 20.5567 41.4616 20.5567C43.6783 20.58 46.7583 20.58 49.3949 20.58C50.7249 20.58 51.4249 19.0167 50.4916 18.0834C47.1316 14.7 41.1116 8.61002 37.6583 5.15669Z" fill="#F62C84"/>
<path d="M37.6583 5.15669C36.7016 4.20002 35.0449 4.85336 35.0449 6.18336V14.3267C35.0449 17.7334 37.9383 20.5567 41.4616 20.5567C43.6783 20.58 46.7583 20.58 49.3949 20.58C50.7249 20.58 51.4249 19.0167 50.4916 18.0834C47.1316 14.7 41.1116 8.61002 37.6583 5.15669Z" fill="url(#paint0_linear_1_512)"/>
<path d="M48.6248 23.7767H41.8814C36.3514 23.7767 31.8481 19.2734 31.8481 13.7434V7.00002C31.8481 5.71669 30.7981 4.66669 29.5148 4.66669H19.6214C12.4348 4.66669 6.62476 9.33335 6.62476 17.6634V38.3367C6.62476 46.6667 12.4348 51.3334 19.6214 51.3334H37.9614C45.1481 51.3334 50.9581 46.6667 50.9581 38.3367V26.11C50.9581 24.8267 49.9081 23.7767 48.6248 23.7767ZM27.6248 41.4167H18.2914C17.3348 41.4167 16.5414 40.6234 16.5414 39.6667C16.5414 38.71 17.3348 37.9167 18.2914 37.9167H27.6248C28.5814 37.9167 29.3748 38.71 29.3748 39.6667C29.3748 40.6234 28.5814 41.4167 27.6248 41.4167ZM32.2914 32.0834H18.2914C17.3348 32.0834 16.5414 31.29 16.5414 30.3334C16.5414 29.3767 17.3348 28.5834 18.2914 28.5834H32.2914C33.2481 28.5834 34.0414 29.3767 34.0414 30.3334C34.0414 31.29 33.2481 32.0834 32.2914 32.0834Z" fill="#F62C84"/>
<path d="M48.6248 23.7767H41.8814C36.3514 23.7767 31.8481 19.2734 31.8481 13.7434V7.00002C31.8481 5.71669 30.7981 4.66669 29.5148 4.66669H19.6214C12.4348 4.66669 6.62476 9.33335 6.62476 17.6634V38.3367C6.62476 46.6667 12.4348 51.3334 19.6214 51.3334H37.9614C45.1481 51.3334 50.9581 46.6667 50.9581 38.3367V26.11C50.9581 24.8267 49.9081 23.7767 48.6248 23.7767ZM27.6248 41.4167H18.2914C17.3348 41.4167 16.5414 40.6234 16.5414 39.6667C16.5414 38.71 17.3348 37.9167 18.2914 37.9167H27.6248C28.5814 37.9167 29.3748 38.71 29.3748 39.6667C29.3748 40.6234 28.5814 41.4167 27.6248 41.4167ZM32.2914 32.0834H18.2914C17.3348 32.0834 16.5414 31.29 16.5414 30.3334C16.5414 29.3767 17.3348 28.5834 18.2914 28.5834H32.2914C33.2481 28.5834 34.0414 29.3767 34.0414 30.3334C34.0414 31.29 33.2481 32.0834 32.2914 32.0834Z" fill="url(#paint1_linear_1_512)"/>
<defs>
<linearGradient id="paint0_linear_1_512" x1="35.0449" y1="12.641" x2="62.4567" y2="-6.33141" gradientUnits="userSpaceOnUse">
<stop stop-color="#FF358D"/>
<stop offset="1" stop-color="#C432FF"/>
</linearGradient>
<linearGradient id="paint1_linear_1_512" x1="6.62476" y1="28" x2="85.6659" y2="-23.9848" gradientUnits="userSpaceOnUse">
<stop stop-color="#FF358D"/>
<stop offset="1" stop-color="#C432FF"/>
</linearGradient>
</defs>
</svg>
