<svg width="35" height="10" viewBox="0 0 35 10" fill="none" xmlns="http://www.w3.org/2000/svg">
<g clip-path="url(#clip0_1_16)">
<path d="M10.1222 5.04901C10.1222 4.22501 10.6808 3.60101 11.4196 3.60101C11.9016 3.60101 12.3115 3.87201 12.5314 4.29501L12.1734 4.53901C12.0256 4.24601 11.7486 4.05101 11.4196 4.05101C10.9191 4.05101 10.5462 4.47901 10.5462 5.04901C10.5462 5.61901 10.9183 6.04701 11.4196 6.04701C11.7486 6.04701 12.0256 5.85201 12.1734 5.55901L12.5314 5.80301C12.3115 6.22601 11.9016 6.49701 11.4196 6.49701C10.6799 6.49701 10.1222 5.87301 10.1222 5.04901Z" fill="black"/>
<path d="M14.2536 3.623V4.106H14.1727C13.6573 4.106 13.3424 4.475 13.3424 5.05V6.433H12.9325V3.667H13.3424V4.144C13.5236 3.813 13.8094 3.623 14.1727 3.623H14.2536Z" fill="black"/>
<path d="M16.9144 3.66601V6.43201H16.5045V5.93301C16.2995 6.28001 15.9653 6.49701 15.5598 6.49701C14.8632 6.49701 14.3433 5.87301 14.3433 5.04901C14.3433 4.22501 14.8632 3.60101 15.5598 3.60101C15.9653 3.60101 16.2995 3.81801 16.5045 4.16501V3.66601H16.9144ZM16.5045 5.04901C16.5045 4.48001 16.1324 4.05101 15.6363 4.05101C15.1402 4.05101 14.7638 4.47901 14.7638 5.04901C14.7638 5.61901 15.1358 6.04701 15.6363 6.04701C16.1368 6.04701 16.5045 5.61901 16.5045 5.04901Z" fill="black"/>
<path d="M19.3429 5.98102V6.43102H17.3779V6.09502L18.7377 4.11602H17.3972V3.66602H19.3102V4.00202L17.9505 5.98102H19.3438H19.3429Z" fill="black"/>
<path d="M22.0943 3.66602L20.7827 7.01702C20.6588 7.34202 20.4204 7.52702 20.1583 7.52702C19.9674 7.52702 19.7432 7.42402 19.5998 7.26102L19.7713 6.90302C19.8521 7.00602 19.9718 7.07602 20.0959 7.07602C20.2198 7.07602 20.3299 7.00602 20.4054 6.82702L20.5823 6.41502L19.5233 3.66602H19.9956L20.8163 5.87302L21.6369 3.66602H22.0952H22.0943Z" fill="black"/>
<path d="M24.6319 7.245L24.207 7.37C24.1973 7.121 24.0064 6.958 23.7302 6.958H22.833C22.4276 6.958 22.1558 6.692 22.1558 6.302C22.1558 6.042 22.2701 5.798 22.4567 5.678C22.2517 5.461 22.1224 5.152 22.1224 4.799C22.1224 4.116 22.5992 3.6 23.2343 3.6C23.4585 3.6 23.6589 3.665 23.8305 3.779C23.8779 3.486 24.0883 3.302 24.3838 3.302H24.5702V3.736H24.4084C24.2316 3.736 24.1129 3.855 24.1076 4.04C24.2606 4.246 24.3459 4.506 24.3459 4.799C24.3459 5.482 23.8639 6.003 23.2343 6.003C23.0434 6.003 22.8718 5.96 22.7188 5.873C22.6238 5.944 22.5656 6.063 22.5656 6.182C22.5656 6.377 22.7038 6.502 22.9088 6.502H23.8007C24.2589 6.502 24.5826 6.784 24.6309 7.245H24.6319ZM22.5473 4.799C22.5473 5.233 22.8428 5.558 23.2343 5.558C23.6256 5.558 23.9211 5.233 23.9211 4.799C23.9211 4.365 23.6256 4.045 23.2343 4.045C22.8428 4.045 22.5473 4.37 22.5473 4.799Z" fill="black"/>
<path d="M26.1773 3.623V4.106H26.0962C25.5808 4.106 25.266 4.475 25.266 5.05V6.433H24.8561V3.667H25.266V4.144C25.4471 3.813 25.7331 3.623 26.0962 3.623H26.1773Z" fill="black"/>
<path d="M28.8388 3.66601V6.43201H28.4289V5.93301C28.224 6.28001 27.8899 6.49701 27.4843 6.49701C26.7878 6.49701 26.2678 5.87301 26.2678 5.04901C26.2678 4.22501 26.7878 3.60101 27.4843 3.60101C27.8899 3.60101 28.224 3.81801 28.4289 4.16501V3.66601H28.8388ZM28.4289 5.04901C28.4289 4.48001 28.0569 4.05101 27.5608 4.05101C27.0647 4.05101 26.6874 4.47901 26.6874 5.04901C26.6874 5.61901 27.0594 6.04701 27.5608 6.04701C28.0622 6.04701 28.4289 5.61901 28.4289 5.04901Z" fill="black"/>
<path d="M32.016 5.04901C32.016 5.87301 31.4908 6.49701 30.795 6.49701C30.3896 6.49701 30.0553 6.28001 29.8504 5.93301V7.46201H29.4405V3.66601H29.8504V4.16501C30.0553 3.81801 30.3896 3.60101 30.795 3.60101C31.4918 3.60101 32.016 4.22501 32.016 5.04901ZM31.5911 5.04901C31.5911 4.48001 31.2189 4.05101 30.7185 4.05101C30.2181 4.05101 29.8504 4.47901 29.8504 5.04901C29.8504 5.61901 30.2224 6.04701 30.7185 6.04701C31.2146 6.04701 31.5911 5.61901 31.5911 5.04901Z" fill="black"/>
<path d="M34.7391 4.72299V6.43099H34.3292V4.86899C34.3292 4.37599 34.0521 4.04999 33.6186 4.04999C33.1849 4.04999 32.8744 4.38099 32.8744 4.87999V6.43099H32.4645V2.52699H32.8744V4.10499C33.0653 3.77999 33.3705 3.60099 33.7522 3.60099C34.3432 3.60099 34.74 4.04599 34.74 4.72399L34.7391 4.72299Z" fill="black"/>
<path d="M4.5 10C6.98527 10 9 7.76142 9 5C9 2.23858 6.98527 0 4.5 0C2.01473 0 0 2.23858 0 5C0 7.76142 2.01473 10 4.5 10Z" fill="url(#paint0_linear_1_16)"/>
<path d="M5.07062 7.08799C4.00412 7.28499 2.99882 6.50999 2.82602 5.35699C2.65322 4.20299 3.37772 3.10799 4.44422 2.91099C4.58912 2.88399 4.73312 2.87499 4.87352 2.88299C5.17592 2.89999 5.44232 2.66199 5.50262 2.33199L5.50442 2.32099C5.57912 1.909 5.30462 1.521 4.92662 1.503C4.70162 1.492 4.47212 1.507 4.23992 1.55C2.47772 1.876 1.28071 3.68499 1.56691 5.58999C1.85221 7.49499 3.51272 8.77499 5.27402 8.44899C5.50712 8.40599 5.73032 8.33699 5.94182 8.24499C6.30632 8.08599 6.44582 7.59399 6.22892 7.23099L6.22532 7.22499C6.06152 6.95099 5.74742 6.84599 5.47112 6.96599C5.34422 7.02099 5.21012 7.06299 5.06972 7.08799H5.07062Z" fill="white"/>
<path d="M5.7339 4.26702L5.9022 4.06702C6.0867 3.84902 6.4071 3.88502 6.5475 4.14002L7.416 5.71702C7.47 5.81502 7.4889 5.93102 7.4682 6.04302C7.4295 6.25102 7.3476 6.61002 7.1937 6.95602C7.0533 7.27002 6.6591 7.29502 6.4863 7.00102C6.264 6.62102 6.0516 6.24802 5.9841 6.12902C5.9535 6.07402 5.9013 6.03802 5.8428 6.03002L4.8402 5.90102C4.6989 5.88302 4.6305 5.69802 4.7205 5.57502C5.0463 5.12602 5.697 4.31102 5.7339 4.26702Z" fill="white"/>
</g>
<defs>
<linearGradient id="paint0_linear_1_16" x1="0" y1="5" x2="9" y2="5" gradientUnits="userSpaceOnUse">
<stop stop-color="#F62C84"/>
<stop offset="0.23" stop-color="#E02F9C"/>
<stop offset="0.72" stop-color="#AB38D9"/>
<stop offset="1" stop-color="#8A3EFF"/>
</linearGradient>
<clipPath id="clip0_1_16">
<rect width="34.875" height="10" fill="white"/>
</clipPath>
</defs>
</svg>
