<svg width="57" height="56" viewBox="0 0 57 56" fill="none" xmlns="http://www.w3.org/2000/svg">
<path d="M51.3548 16.2167C49.8615 11.1533 45.6382 6.93 40.5748 5.43667C36.7248 4.31667 34.0648 4.41 32.2215 5.78667C30.0048 7.44333 29.7482 10.43 29.7482 12.5533V18.3633C29.7482 24.1033 32.3615 27.02 37.4948 27.02H44.1915C46.2915 27.02 49.3015 26.7633 50.9582 24.5467C52.3815 22.7267 52.4982 20.0667 51.3548 16.2167Z" fill="#F62C84"/>
<path d="M51.3548 16.2167C49.8615 11.1533 45.6382 6.93 40.5748 5.43667C36.7248 4.31667 34.0648 4.41 32.2215 5.78667C30.0048 7.44333 29.7482 10.43 29.7482 12.5533V18.3633C29.7482 24.1033 32.3615 27.02 37.4948 27.02H44.1915C46.2915 27.02 49.3015 26.7633 50.9582 24.5467C52.3815 22.7267 52.4982 20.0667 51.3548 16.2167Z" fill="url(#paint0_linear_1_481)"/>
<path d="M44.9148 31.1733C44.3082 30.4733 43.4215 30.0767 42.5115 30.0767H34.1582C30.0515 30.0767 26.7148 26.74 26.7148 22.6333V14.28C26.7148 13.37 26.3182 12.4833 25.6182 11.8767C24.9415 11.27 24.0082 10.99 23.1215 11.1067C17.6382 11.8067 12.5982 14.8166 9.30818 19.3433C5.99484 23.8933 4.78151 29.4466 5.83151 35C7.34818 43.0266 13.7648 49.4433 21.8148 50.96C23.0982 51.2167 24.3815 51.3333 25.6648 51.3333C29.8882 51.3333 33.9715 50.0266 37.4482 47.4833C41.9748 44.1933 44.9848 39.1533 45.6848 33.67C45.8015 32.76 45.5215 31.85 44.9148 31.1733Z" fill="#F62C84"/>
<path d="M44.9148 31.1733C44.3082 30.4733 43.4215 30.0767 42.5115 30.0767H34.1582C30.0515 30.0767 26.7148 26.74 26.7148 22.6333V14.28C26.7148 13.37 26.3182 12.4833 25.6182 11.8767C24.9415 11.27 24.0082 10.99 23.1215 11.1067C17.6382 11.8067 12.5982 14.8166 9.30818 19.3433C5.99484 23.8933 4.78151 29.4466 5.83151 35C7.34818 43.0266 13.7648 49.4433 21.8148 50.96C23.0982 51.2167 24.3815 51.3333 25.6648 51.3333C29.8882 51.3333 33.9715 50.0266 37.4482 47.4833C41.9748 44.1933 44.9848 39.1533 45.6848 33.67C45.8015 32.76 45.5215 31.85 44.9148 31.1733Z" fill="url(#paint1_linear_1_481)"/>
<defs>
<linearGradient id="paint0_linear_1_481" x1="29.7482" y1="15.844" x2="64.5137" y2="-8.47041" gradientUnits="userSpaceOnUse">
<stop stop-color="#FF358D"/>
<stop offset="1" stop-color="#C432FF"/>
</linearGradient>
<linearGradient id="paint1_linear_1_481" x1="5.46411" y1="31.207" x2="68.0412" y2="-12.4962" gradientUnits="userSpaceOnUse">
<stop stop-color="#FF358D"/>
<stop offset="1" stop-color="#C432FF"/>
</linearGradient>
</defs>
</svg>
