<svg width="73" height="72" viewBox="0 0 73 72" fill="none" xmlns="http://www.w3.org/2000/svg">
<path d="M65.8117 20.85C63.8917 14.34 58.4617 8.90999 51.9517 6.98999C47.0017 5.54999 43.5817 5.66999 41.2117 7.43999C38.3617 9.56999 38.0317 13.41 38.0317 16.14V23.61C38.0317 30.99 41.3917 34.74 47.9917 34.74H56.6017C59.3017 34.74 63.1717 34.41 65.3017 31.56C67.1317 29.22 67.2817 25.8 65.8117 20.85Z" fill="white"/>
<path d="M57.5319 40.08C56.7519 39.18 55.6119 38.67 54.4419 38.67H43.7019C38.4219 38.67 34.1319 34.38 34.1319 29.1V18.36C34.1319 17.19 33.6219 16.05 32.7219 15.27C31.8519 14.49 30.6519 14.13 29.5119 14.28C22.4619 15.18 15.9819 19.05 11.7519 24.87C7.49194 30.72 5.93194 37.86 7.28194 45C9.23194 55.32 17.4819 63.57 27.8319 65.52C29.4819 65.85 31.1319 66 32.7819 66C38.2119 66 43.4619 64.32 47.9319 61.05C53.7519 56.82 57.6219 50.34 58.5219 43.29C58.6719 42.12 58.3119 40.95 57.5319 40.08Z" fill="white"/>
</svg>
