<svg width="149" height="148" viewBox="0 0 149 148" fill="none" xmlns="http://www.w3.org/2000/svg">
<g opacity="0.3">
<path d="M0.791504 0H4.7915V4H0.791504V0Z" fill="#C4C4C4"/>
<path d="M24.7915 0H28.7915V4H24.7915V0Z" fill="#C4C4C4"/>
<path d="M48.7915 0H52.7915V4H48.7915V0Z" fill="#C4C4C4"/>
<path d="M72.7915 0H76.7915V4H72.7915V0Z" fill="#C4C4C4"/>
<path d="M96.7915 0H100.792V4H96.7915V0Z" fill="#C4C4C4"/>
<path d="M120.792 0H124.792V4H120.792V0Z" fill="#C4C4C4"/>
<path d="M144.792 0H148.792V4H144.792V0Z" fill="#C4C4C4"/>
<path d="M0.791504 24H4.7915V28H0.791504V24Z" fill="#C4C4C4"/>
<path d="M24.7915 24H28.7915V28H24.7915V24Z" fill="#C4C4C4"/>
<path d="M48.7915 24H52.7915V28H48.7915V24Z" fill="#C4C4C4"/>
<path d="M72.7915 24H76.7915V28H72.7915V24Z" fill="#C4C4C4"/>
<path d="M96.7915 24H100.792V28H96.7915V24Z" fill="#C4C4C4"/>
<path d="M120.792 24H124.792V28H120.792V24Z" fill="#C4C4C4"/>
<path d="M144.792 24H148.792V28H144.792V24Z" fill="#C4C4C4"/>
<path d="M0.791504 48H4.7915V52H0.791504V48Z" fill="#C4C4C4"/>
<path d="M24.7915 48H28.7915V52H24.7915V48Z" fill="#C4C4C4"/>
<path d="M48.7915 48H52.7915V52H48.7915V48Z" fill="#C4C4C4"/>
<path d="M72.7915 48H76.7915V52H72.7915V48Z" fill="#C4C4C4"/>
<path d="M96.7915 48H100.792V52H96.7915V48Z" fill="#C4C4C4"/>
<path d="M120.792 48H124.792V52H120.792V48Z" fill="#C4C4C4"/>
<path d="M144.792 48H148.792V52H144.792V48Z" fill="#C4C4C4"/>
<path d="M0.791504 72H4.7915V76H0.791504V72Z" fill="#C4C4C4"/>
<path d="M24.7915 72H28.7915V76H24.7915V72Z" fill="#C4C4C4"/>
<path d="M48.7915 72H52.7915V76H48.7915V72Z" fill="#C4C4C4"/>
<path d="M72.7915 72H76.7915V76H72.7915V72Z" fill="#C4C4C4"/>
<path d="M96.7915 72H100.792V76H96.7915V72Z" fill="#C4C4C4"/>
<path d="M120.792 72H124.792V76H120.792V72Z" fill="#C4C4C4"/>
<path d="M144.792 72H148.792V76H144.792V72Z" fill="#C4C4C4"/>
<path d="M0.791504 96H4.7915V100H0.791504V96Z" fill="#C4C4C4"/>
<path d="M24.7915 96H28.7915V100H24.7915V96Z" fill="#C4C4C4"/>
<path d="M48.7915 96H52.7915V100H48.7915V96Z" fill="#C4C4C4"/>
<path d="M72.7915 96H76.7915V100H72.7915V96Z" fill="#C4C4C4"/>
<path d="M96.7915 96H100.792V100H96.7915V96Z" fill="#C4C4C4"/>
<path d="M120.792 96H124.792V100H120.792V96Z" fill="#C4C4C4"/>
<path d="M144.792 96H148.792V100H144.792V96Z" fill="#C4C4C4"/>
<path d="M0.791504 120H4.7915V124H0.791504V120Z" fill="#C4C4C4"/>
<path d="M24.7915 120H28.7915V124H24.7915V120Z" fill="#C4C4C4"/>
<path d="M48.7915 120H52.7915V124H48.7915V120Z" fill="#C4C4C4"/>
<path d="M72.7915 120H76.7915V124H72.7915V120Z" fill="#C4C4C4"/>
<path d="M96.7915 120H100.792V124H96.7915V120Z" fill="#C4C4C4"/>
<path d="M120.792 120H124.792V124H120.792V120Z" fill="#C4C4C4"/>
<path d="M144.792 120H148.792V124H144.792V120Z" fill="#C4C4C4"/>
<path d="M0.791504 144H4.7915V148H0.791504V144Z" fill="#C4C4C4"/>
<path d="M24.7915 144H28.7915V148H24.7915V144Z" fill="#C4C4C4"/>
<path d="M48.7915 144H52.7915V148H48.7915V144Z" fill="#C4C4C4"/>
<path d="M72.7915 144H76.7915V148H72.7915V144Z" fill="#C4C4C4"/>
<path d="M96.7915 144H100.792V148H96.7915V144Z" fill="#C4C4C4"/>
<path d="M120.792 144H124.792V148H120.792V144Z" fill="#C4C4C4"/>
<path d="M144.792 144H148.792V148H144.792V144Z" fill="#C4C4C4"/>
</g>
</svg>
