<svg width="131" height="31" viewBox="0 0 131 31" fill="none" xmlns="http://www.w3.org/2000/svg">
<path d="M0.295336 23.1981C0.138497 23.1075 0.0100098 22.8854 0.0100098 22.7051V7.94092C0.0100098 7.76031 0.138497 7.53858 0.295336 7.44778L13.2457 0.0679719C13.4027 -0.0226573 13.6595 -0.0226573 13.8165 0.0679719L26.766 7.4486C26.923 7.53923 27.0513 7.76097 27.0513 7.94157V22.7058C27.0513 22.8859 26.923 23.1078 26.766 23.1988L13.8165 30.5787C13.6595 30.6694 13.4027 30.6694 13.2457 30.5787L0.295336 23.1981ZM39.2154 9.41032V15.3987H41.7762C43.6346 15.3987 44.4606 14.6416 44.4606 13.4026V11.4065C44.4606 10.1676 43.6346 9.41032 41.7762 9.41032H39.2154ZM39.2154 17.3031V22.6491C39.2154 22.9701 39.1328 23.1078 38.8438 23.1078H37.584C37.3155 23.1078 37.2123 22.9701 37.2123 22.6491V7.96501C37.2123 7.64379 37.3155 7.50596 37.584 7.50596H41.7762C45.3281 7.50596 46.4638 9.15794 46.4638 11.0394V13.7699C46.4638 15.6511 45.3281 17.3031 41.7762 17.3031H39.2154ZM51.1241 9.41032V15.0316H53.6847C55.5433 15.0316 56.3694 14.2974 56.3694 13.0355V11.4065C56.3694 10.1676 55.5433 9.41032 53.6847 9.41032H51.1241ZM51.1241 16.936V22.6491C51.1241 22.9701 51.0413 23.1078 50.7522 23.1078H49.4926C49.2242 23.1078 49.1209 22.9701 49.1209 22.6491V7.96501C49.1209 7.64379 49.2242 7.50596 49.4926 7.50596H53.6847C57.2367 7.50596 58.3725 9.15794 58.3725 11.0394V13.4255C58.3725 14.8251 57.7323 16.0871 55.9563 16.6379L58.4344 22.6491C58.5377 22.9244 58.3518 23.1078 58.0627 23.1078H56.8236C56.5345 23.1078 56.4932 22.9244 56.3694 22.6491L54.0357 16.936H51.1241ZM69.2285 11.2229C69.2285 9.98393 68.3568 9.22677 66.395 9.22677C64.4551 9.22677 63.5834 9.98393 63.5834 11.2229V19.3908C63.5834 20.63 64.4551 21.387 66.395 21.387C68.3568 21.387 69.2285 20.63 69.2285 19.3908V11.2229ZM61.4473 10.8558C61.4473 8.97439 62.6679 7.32257 66.395 7.32257C70.1439 7.32257 71.3647 8.97439 71.3647 10.8558V19.7581C71.3647 21.6395 70.1439 23.2915 66.395 23.2915C62.6679 23.2915 61.4473 21.6395 61.4473 19.7581V10.8558ZM82.8732 7.50596C83.1565 7.50596 83.2873 7.62085 83.2873 7.9419V8.97439C83.2873 9.2956 83.1565 9.41032 82.8732 9.41032H79.3858V22.6491C79.3858 22.9701 79.2769 23.1078 78.9933 23.1078H77.6421C77.3587 23.1078 77.2497 22.9701 77.2497 22.6491V9.41032H73.7622C73.4572 9.41032 73.3483 9.2956 73.3483 8.97439V7.9419C73.3483 7.62085 73.4572 7.50596 73.7622 7.50596H82.8732ZM93.0309 11.2229C93.0309 9.98393 92.159 9.22677 90.1974 9.22677C88.2575 9.22677 87.3856 9.98393 87.3856 11.2229V19.3908C87.3856 20.63 88.2575 21.387 90.1974 21.387C92.159 21.387 93.0309 20.63 93.0309 19.3908V11.2229ZM85.2495 10.8558C85.2495 8.97439 86.4702 7.32257 90.1974 7.32257C93.9463 7.32257 95.167 8.97439 95.167 10.8558V19.7581C95.167 21.6395 93.9463 23.2915 90.1974 23.2915C86.4702 23.2915 85.2495 21.6395 85.2495 19.7581V10.8558ZM107.783 22.6719C107.783 22.9701 107.701 23.1078 107.412 23.1078H106.276C106.069 23.1078 105.987 23.039 105.904 22.9013L101.051 13.4487C100.597 12.5996 100.349 11.8883 100.308 11.7965V22.6719C100.308 22.9701 100.205 23.1078 99.9361 23.1078H98.7797C98.5112 23.1078 98.408 22.9701 98.408 22.6719V7.9419C98.408 7.64379 98.5112 7.50596 98.7797 7.50596H99.9361C100.101 7.50596 100.205 7.57479 100.266 7.68952L105.243 17.349C105.532 17.8996 105.884 18.8172 105.884 18.8172V7.9419C105.884 7.64379 106.007 7.50596 106.276 7.50596H107.412C107.701 7.50596 107.783 7.64379 107.783 7.9419V22.6719ZM111.335 23.1078C111.066 23.1078 110.963 22.9701 110.963 22.6491V7.96501C110.963 7.64379 111.066 7.50596 111.335 7.50596H118.397C118.666 7.50596 118.79 7.62085 118.79 7.9419V8.97439C118.79 9.2956 118.666 9.41032 118.397 9.41032H112.966V14.045H118.025C118.315 14.045 118.439 14.1598 118.439 14.481V15.4676C118.439 15.7658 118.315 15.9035 118.025 15.9035H112.966V21.2036H118.624C118.893 21.2036 119.017 21.2954 119.017 21.6164V22.6719C119.017 22.9932 118.893 23.1078 118.624 23.1078H111.335ZM130.399 7.50596C130.668 7.50596 130.791 7.62085 130.791 7.9419V8.97439C130.791 9.2956 130.668 9.41032 130.399 9.41032H127.095V22.6491C127.095 22.9701 126.992 23.1078 126.723 23.1078H125.443C125.174 23.1078 125.071 22.9701 125.071 22.6491V9.41032H121.767C121.478 9.41032 121.375 9.2956 121.375 8.97439V7.9419C121.375 7.62085 121.478 7.50596 121.767 7.50596H130.399Z" fill="#B2AECF"/>
</svg>
