<svg width="132" height="18" viewBox="0 0 132 18" fill="none" xmlns="http://www.w3.org/2000/svg">
<path d="M57.2877 11.8837H65.9295L61.36 4.53213L52.9735 17.8241H49.1566L59.3574 1.85761C59.801 1.2125 60.5401 0.822754 61.36 0.822754C62.1529 0.822754 62.8921 1.19907 63.3222 1.83073L73.5633 17.8241H69.7465L67.9455 14.8539H59.1961L57.2877 11.8837ZM96.9352 14.8539V0.984032H93.6962V16.2113C93.6962 16.628 93.8575 17.0312 94.1666 17.3403C94.4756 17.6494 94.8923 17.8241 95.3493 17.8241H110.12L112.028 14.8539H96.9352ZM43.3506 12.3675C46.4956 12.3675 49.0492 9.82743 49.0492 6.68251C49.0492 3.5376 46.4956 0.984032 43.3506 0.984032H29.181V17.8241H32.4187V3.95423H43.1356C44.6409 3.95423 45.8505 5.17725 45.8505 6.68251C45.8505 8.18777 44.6409 9.41079 43.1356 9.41079L34.0046 9.39735L43.6731 17.8241H48.3772L41.8723 12.3675H43.3506ZM9.24983 17.8241C4.60095 17.8241 0.828369 14.061 0.828369 9.41079C0.828369 4.76061 4.60095 0.984032 9.24983 0.984032H19.038C23.6881 0.984032 27.458 4.76061 27.458 9.41079C27.458 14.061 23.6881 17.8241 19.038 17.8241H9.24983ZM18.8202 14.8539C21.8322 14.8539 24.2715 12.4213 24.2715 9.41079C24.2715 6.40027 21.8322 3.95423 18.8202 3.95423H9.46617C6.45565 3.95423 4.01492 6.40027 4.01492 9.41079C4.01492 12.4213 6.45565 14.8539 9.46617 14.8539H18.8202ZM80.3235 17.8241C75.6733 17.8241 71.8968 14.061 71.8968 9.41079C71.8968 4.76061 75.6733 0.984032 80.3235 0.984032H91.949L90.054 3.95423H80.5386C77.528 3.95423 75.0821 6.40027 75.0821 9.41079C75.0821 12.4213 77.528 14.8539 80.5386 14.8539H92.2177L90.3093 17.8241H80.3235ZM119.931 14.8539C117.444 14.8539 115.334 13.1874 114.689 10.8892H128.532L130.441 7.91897H114.689C115.334 5.6342 117.444 3.95423 119.931 3.95423H129.433L131.355 0.984032H119.716C115.065 0.984032 111.289 4.76061 111.289 9.41079C111.289 14.061 115.065 17.8241 119.716 17.8241H129.701L131.61 14.8539H119.931Z" fill="#B2AECF"/>
</svg>
