<svg width="132" height="21" viewBox="0 0 132 21" fill="none" xmlns="http://www.w3.org/2000/svg">
<path d="M19.1689 20.5081V15.2058H13.3947C11.8245 15.2058 10.3699 16.0301 9.56568 17.3759L7.69373 20.5081H19.1689Z" fill="#B2AECF"/>
<path d="M0.791504 0.138428V5.4407H16.0001L19.169 0.138428H0.791504Z" fill="#B2AECF"/>
<path d="M8.07017 8.4253L0.808228 20.5081H6.99523L15.6792 6.05273H12.2627C10.5443 6.05273 8.95221 6.95368 8.07017 8.4253Z" fill="#B2AECF"/>
<path d="M32.3324 15.419C29.2213 15.419 26.932 13.1576 26.932 10.123C26.932 7.1175 29.236 4.82693 32.3471 4.82693C35.4582 4.82693 37.7621 7.14668 37.7621 10.123C37.7621 13.1284 35.4435 15.419 32.3324 15.419ZM32.3471 13.5661C34.3135 13.5661 35.7223 12.1072 35.7223 10.123C35.7223 8.16796 34.3135 6.67981 32.3471 6.67981C30.366 6.67981 28.9572 8.16796 28.9572 10.123C28.9572 12.1072 30.366 13.5661 32.3471 13.5661ZM39.8454 18.585V7.55519H41.7238V8.5327H41.8266C42.032 8.21173 42.7364 7.36553 44.1452 7.36553C46.3024 7.36553 47.7846 8.97039 47.7846 11.3631C47.7846 13.7558 46.3171 15.419 44.2039 15.419C42.8391 15.419 42.1054 14.6604 41.8559 14.2373H41.7532V18.585H39.8454ZM43.7783 13.6974C45.011 13.6974 45.8475 12.7491 45.8475 11.3923C45.8475 9.99166 45.011 9.08711 43.7637 9.08711C42.5016 9.08711 41.7092 10.0938 41.7092 11.3923C41.7092 12.8221 42.5897 13.6974 43.7783 13.6974ZM53.2431 15.419C50.9685 15.419 49.3543 13.7266 49.3543 11.436C49.3543 9.01416 50.9832 7.36553 53.2431 7.36553C55.7232 7.36553 57.0733 9.18923 57.0733 11.3485V11.9467H51.2033C51.262 13.1139 52.0692 13.9017 53.3019 13.9017C54.241 13.9017 54.9601 13.464 55.2243 12.8366H56.9999C56.6184 14.3977 55.2389 15.419 53.2431 15.419ZM51.2327 10.6044H55.2536C55.1656 9.56856 54.3584 8.88285 53.2431 8.88285C52.1719 8.88285 51.3501 9.64151 51.2327 10.6044ZM59.1273 15.2294V7.55519H60.947V8.48893H61.0497C61.3579 7.91993 62.121 7.36553 63.2216 7.36553C64.9532 7.36553 66.0098 8.57647 66.0098 10.2105V15.2294H64.1021V10.7066C64.1021 9.77282 63.5004 9.14547 62.6199 9.14547C61.6954 9.14547 61.035 9.87495 61.035 10.8379V15.2294H59.1273ZM67.9024 15.2294V13.4932L73.2441 6.79653V6.6944H68.0931V5.01659H75.6801V6.73817L70.3384 13.4348V13.5515H75.7094V15.2294H67.9024ZM80.8745 15.419C78.5999 15.419 76.9856 13.7266 76.9856 11.436C76.9856 9.01416 78.6146 7.36553 80.8745 7.36553C83.3546 7.36553 84.7047 9.18923 84.7047 11.3485V11.9467H78.8347C78.8934 13.1139 79.7005 13.9017 80.9332 13.9017C81.8724 13.9017 82.5915 13.464 82.8556 12.8366H84.6313C84.2497 14.3977 82.8703 15.419 80.8745 15.419ZM78.864 10.6044H82.885C82.7969 9.56856 81.9898 8.88285 80.8745 8.88285C79.8032 8.88285 78.9814 9.64151 78.864 10.6044ZM86.7586 18.585V7.55519H88.637V8.5327H88.7397C88.9452 8.21173 89.6496 7.36553 91.0584 7.36553C93.2156 7.36553 94.6978 8.97039 94.6978 11.3631C94.6978 13.7558 93.2303 15.419 91.1171 15.419C89.7523 15.419 89.0186 14.6604 88.7691 14.2373H88.6664V18.585H86.7586ZM90.6915 13.6974C91.9242 13.6974 92.7607 12.7491 92.7607 11.3923C92.7607 9.99166 91.9242 9.08711 90.6768 9.08711C89.4148 9.08711 88.6223 10.0938 88.6223 11.3923C88.6223 12.8221 89.5028 13.6974 90.6915 13.6974ZM96.7517 18.585V7.55519H98.6301V8.5327H98.7329C98.9383 8.21173 99.6427 7.36553 101.052 7.36553C103.209 7.36553 104.691 8.97039 104.691 11.3631C104.691 13.7558 103.223 15.419 101.11 15.419C99.7454 15.419 99.0117 14.6604 98.7622 14.2373H98.6595V18.585H96.7517ZM100.685 13.6974C101.917 13.6974 102.754 12.7491 102.754 11.3923C102.754 9.99166 101.917 9.08711 100.67 9.08711C99.4079 9.08711 98.6155 10.0938 98.6155 11.3923C98.6155 12.8221 99.496 13.6974 100.685 13.6974ZM110.149 15.419C107.875 15.419 106.261 13.7266 106.261 11.436C106.261 9.01416 107.89 7.36553 110.149 7.36553C112.63 7.36553 113.98 9.18923 113.98 11.3485V11.9467H108.11C108.168 13.1139 108.975 13.9017 110.208 13.9017C111.147 13.9017 111.866 13.464 112.131 12.8366H113.906C113.525 14.3977 112.145 15.419 110.149 15.419ZM108.139 10.6044H112.16C112.072 9.56856 111.265 8.88285 110.149 8.88285C109.078 8.88285 108.256 9.64151 108.139 10.6044ZM117.912 15.2294C116.562 15.2294 115.799 14.4269 115.799 13.0701V4.28711H117.707V12.895C117.707 13.3327 117.927 13.5661 118.323 13.5661H118.631V15.2294H117.912ZM121.419 6.53392C120.729 6.53392 120.245 6.11082 120.245 5.4251C120.245 4.76857 120.729 4.33088 121.419 4.33088C122.108 4.33088 122.593 4.76857 122.593 5.4251C122.593 6.11082 122.108 6.53392 121.419 6.53392ZM120.465 15.2294V7.55519H122.373V15.2294H120.465ZM124.691 15.2294V7.55519H126.51V8.48893H126.613C126.921 7.91993 127.684 7.36553 128.785 7.36553C130.517 7.36553 131.573 8.57647 131.573 10.2105V15.2294H129.666V10.7066C129.666 9.77282 129.064 9.14547 128.183 9.14547C127.259 9.14547 126.598 9.87495 126.598 10.8379V15.2294H124.691Z" fill="#B2AECF"/>
</svg>
