<svg width="132" height="25" viewBox="0 0 132 25" fill="none" xmlns="http://www.w3.org/2000/svg">
<path d="M3.65012 19.2355C2.66917 19.2376 1.76295 18.7117 1.27807 17.859C0.800184 17.0115 0.828841 15.9695 1.35259 15.1496L6.23743 7.4787C6.74643 6.63938 7.66765 6.13883 8.6488 6.16848C9.62924 6.19198 10.521 6.74169 10.9826 7.60703C11.4379 8.46808 11.381 9.50404 10.8356 10.3123L5.95386 17.9832C5.45072 18.7672 4.58169 19.2396 3.65012 19.2355Z" fill="#B2AECF"/>
<path d="M12.0291 19.2351C11.0438 19.2351 10.1373 18.7083 9.66119 17.8617C9.18436 17.0166 9.21302 15.9772 9.7357 15.1596L14.6112 7.5063C15.1129 6.65494 16.0368 6.14264 17.0247 6.16815C18.0182 6.18988 18.9186 6.74563 19.3739 7.61497C19.8262 8.48431 19.76 9.52647 19.198 10.3327L14.3235 17.9859C13.822 18.7666 12.957 19.2375 12.0291 19.2351Z" fill="#B2AECF"/>
<path d="M20.2203 19.3001C21.6092 19.3001 22.7352 18.1978 22.7352 16.8381C22.7352 15.4783 21.6092 14.376 20.2203 14.376C18.8314 14.376 17.7054 15.4783 17.7054 16.8381C17.7054 18.1978 18.8314 19.3001 20.2203 19.3001Z" fill="#B2AECF"/>
<path d="M129.473 14.5177C130.232 14.5177 130.687 15.0579 130.687 15.9428V18.9751H131.719V15.8734C131.719 14.3687 131.01 13.4962 129.677 13.4962C129.155 13.4962 128.327 13.639 127.833 14.5984C127.6 14.0219 127.068 13.6203 126.45 13.5531C126.259 13.5182 126.064 13.5067 125.87 13.519C125.446 13.5531 124.69 13.817 124.408 14.4152V13.6111H123.375V18.9751H124.408V16.0804C124.408 14.9544 125.145 14.5177 125.883 14.5177C126.574 14.5177 127.028 15.0465 127.028 15.9314V18.9751H128.055V16.0804C128.055 15.1842 128.593 14.5073 129.473 14.5177ZM119.584 18.0789C120.056 18.0892 120.511 17.9009 120.842 17.5593C121.173 17.2178 121.349 16.7531 121.331 16.276C121.331 15.1956 120.536 14.5177 119.584 14.5177C118.631 14.5177 117.837 15.1956 117.837 16.276C117.819 16.7521 117.994 17.2157 118.324 17.5562C118.653 17.8978 119.106 18.0871 119.576 18.0789H119.584ZM119.584 19.0848C118.075 19.0848 116.816 17.9702 116.816 16.2698C116.816 14.5694 118.075 13.49 119.584 13.49C121.093 13.49 122.363 14.5694 122.363 16.2698C122.363 17.9702 121.086 19.09 119.577 19.09L119.584 19.0848ZM111.501 16.2698L111.491 16.276C111.491 14.5756 112.784 13.4962 114.303 13.49C115.075 13.4751 115.817 13.788 116.345 14.3511L115.562 15.0176C115.227 14.688 114.773 14.5061 114.303 14.5125C113.351 14.5125 112.523 15.1904 112.523 16.2698C112.523 16.9994 112.956 17.6566 113.622 17.936C114.287 18.2155 115.053 18.0602 115.562 17.5448L116.356 18.2113C115.826 18.7802 115.08 19.0977 114.303 19.0848C112.795 19.0848 111.501 17.9702 111.501 16.2698ZM108.197 17.9454C108.195 17.756 108.268 17.5735 108.4 17.438C108.532 17.3025 108.713 17.2252 108.903 17.223C109.092 17.2252 109.273 17.3025 109.405 17.438C109.538 17.5735 109.611 17.756 109.608 17.9454C109.589 18.3224 109.28 18.6193 108.903 18.6232C108.525 18.6193 108.216 18.3224 108.197 17.9454Z" fill="#B2AECF"/>
<path d="M111.02 6.79262H107.345L104.769 13.4337L102.207 6.79262H98.5319L103 17.2867L100.221 24.2249H103.869L111.02 6.79262ZM88.6701 12.6296C88.6701 14.3062 90.1355 15.4094 91.5751 15.4094C92.9898 15.4094 94.3797 14.3828 94.3797 12.6286C94.3797 10.8744 92.9898 9.84668 91.5751 9.84668C90.1355 9.84668 88.6701 10.9509 88.6701 12.6286V12.6296ZM94.3797 18.4893V17.1615C93.6346 18.2896 91.8959 18.716 91.0038 18.716C88.0501 18.716 85.0954 16.3874 85.0954 12.6286C85.0954 8.87075 88.0491 6.54217 91.0038 6.54217C91.7479 6.54217 93.4866 6.79055 94.3797 8.09455V6.79676H97.8053V18.4914L94.3797 18.4904V18.4893ZM84.1205 18.4893H80.6949V17.0363C80.1226 18.1126 78.7348 18.7398 77.2942 18.7398C74.3146 18.7398 71.6828 16.3605 71.6828 12.6762C71.6828 8.92249 74.3146 6.5401 77.2942 6.5401C78.7327 6.5401 80.1247 7.14036 80.6949 8.21771V0.421631H84.1205V18.4893ZM80.6204 12.6027C80.6204 10.8495 79.3547 9.82184 77.94 9.82184C76.4745 9.82184 75.2575 10.924 75.2575 12.6027C75.2575 14.3351 76.4745 15.4322 77.9389 15.4322C79.3806 15.4342 80.6204 14.2813 80.6204 12.6027ZM63.213 12.3005C63.213 10.5225 64.132 9.9212 65.3481 9.9212C66.5144 9.9212 67.3589 10.6974 67.3589 12.2498V18.4873H70.8093V11.4995C70.8093 8.16907 69.17 6.5401 66.5631 6.5401C65.198 6.5401 63.8329 7.31629 63.212 8.49403V6.79262H59.7636V18.4873H63.213V12.3005ZM52.7572 18.688C49.4806 18.688 46.7474 16.2839 46.7474 12.6016C46.7474 8.91732 49.4775 6.53699 52.7572 6.53699C56.0369 6.53699 58.7908 8.91732 58.7908 12.6016C58.7908 16.286 56.0337 18.6891 52.7572 18.6891V18.688ZM52.7572 15.2831C54.1957 15.2831 55.389 14.2296 55.389 12.6027C55.389 11.0244 54.1968 9.94707 52.7572 9.94707C52.0567 9.93611 51.3824 10.2134 50.8922 10.7139C50.3993 11.2171 50.1316 11.8986 50.1502 12.6027C50.1512 14.2317 51.3424 15.2831 52.7572 15.2831ZM40.5616 9.92223C41.579 9.92223 42.4731 10.7243 42.4731 12.2508V18.4893H45.8987V11.8472C45.8987 8.31603 44.1818 6.53803 41.4299 6.53803C40.6123 6.53803 39.0724 6.78641 37.9547 8.61616C37.3089 7.26351 36.068 6.56183 34.2341 6.56183C32.9337 6.55522 31.7495 7.30958 31.2059 8.49093V6.79366H27.7534V18.4883H31.2028V12.3005C31.2028 10.5225 32.1715 9.9212 33.2137 9.9212C34.2072 9.9212 35.0993 10.6974 35.1252 12.1753V18.4883H38.5756V12.3005C38.5756 10.6001 39.4698 9.92326 40.5616 9.92326V9.92223Z" fill="#B2AECF"/>
</svg>
