<svg width="132" height="21" viewBox="0 0 132 21" fill="none" xmlns="http://www.w3.org/2000/svg">
<path d="M125.07 9.10577V11.8325H126.986V14.5379C126.991 14.7451 126.982 14.9662 126.954 15.1566L126.938 15.249C126.934 15.2696 126.931 15.2908 126.926 15.3124L126.911 15.379C126.908 15.3903 126.905 15.4017 126.901 15.4132L126.879 15.4834C126.707 15.9816 126.188 16.6128 125.022 16.6128C123.78 16.6128 123.282 15.8882 123.145 15.379L123.129 15.3124L123.117 15.249C123.083 15.0403 123.068 14.7796 123.068 14.5379V5.993C123.068 5.72434 123.084 5.4331 123.133 5.19583L123.166 5.05165C123.168 5.04167 123.171 5.03152 123.174 5.02122L123.192 4.95772C123.195 4.94687 123.199 4.93589 123.202 4.92479L123.226 4.85691C123.403 4.3848 123.872 3.75602 125.012 3.75602C125.892 3.75602 126.365 4.11458 126.619 4.48518L126.664 4.55472C126.678 4.57789 126.691 4.60103 126.704 4.62404L126.739 4.69262L126.77 4.75997L126.797 4.82556L126.82 4.8889L126.84 4.94948L126.857 5.00678L126.87 5.0603L126.881 5.10954C126.886 5.13403 126.89 5.16002 126.894 5.18705L126.905 5.27075C126.907 5.28505 126.909 5.2995 126.91 5.31402L126.922 5.44527L126.929 5.57114L126.936 5.74276L126.938 5.83071V6.8683H131.646L131.647 6.2224L131.65 5.9914L131.649 5.81234L131.645 5.60385L131.641 5.4916L131.633 5.31664L131.621 5.13742L131.61 5.01759C131.292 1.86111 128.919 0.646671 126.032 0.435349L125.839 0.422737L125.645 0.413035C125.547 0.408901 125.449 0.405836 125.35 0.403804L125.153 0.401107C125.119 0.400773 125.086 0.400773 125.053 0.400773L124.855 0.402127C124.822 0.40258 124.789 0.403148 124.756 0.403831L124.559 0.40933L124.364 0.417667L124.17 0.428904L123.978 0.4431C123.914 0.448332 123.851 0.454067 123.788 0.460315L123.599 0.480611C123.568 0.484254 123.536 0.488027 123.505 0.491933L123.319 0.516962C122.888 0.579108 122.473 0.66764 122.08 0.786007L121.913 0.838572C120.088 1.4371 118.762 2.70965 118.49 5.01759L118.462 5.27378L118.443 5.47214L118.425 5.6801L118.41 5.887C118.401 6.0222 118.396 6.14959 118.396 6.25492L118.396 14.2162L118.398 14.315L118.402 14.4652L118.407 14.5705L118.413 14.6829L118.421 14.8052L118.432 14.9399L118.453 15.1711L118.47 15.3484C118.735 18.2816 120.958 19.5864 123.678 19.8942L123.869 19.9141C124.188 19.9446 124.513 19.9617 124.842 19.9666L125.04 19.9681L125.239 19.9666C125.57 19.9617 125.897 19.9446 126.217 19.9141L126.408 19.8942C129.137 19.5864 131.346 18.2816 131.615 15.3484L131.637 15.0897L131.653 14.8708L131.667 14.6256L131.676 14.4144L131.684 14.1153V9.10577H125.07ZM92.604 0.903723H87.8755V14.735C87.883 14.976 87.8755 15.2468 87.834 15.4453L87.8201 15.5055L87.8028 15.5696C87.7965 15.5915 87.7895 15.614 87.782 15.637L87.7572 15.7071C87.5788 16.1827 87.1244 16.8032 86.0373 16.8032C85.0178 16.8032 84.5524 16.2432 84.3574 15.7795L84.3288 15.7071C84.3244 15.6953 84.3202 15.6835 84.3161 15.6718L84.2938 15.6029L84.2754 15.5371C84.2727 15.5264 84.2701 15.5159 84.2676 15.5055L84.2545 15.4453C84.2072 15.2468 84.2012 14.976 84.2072 14.735V0.903723H79.4802V14.3057L79.4794 14.4135L79.481 14.6019L79.4876 14.8791L79.5006 15.216L79.5096 15.3856L79.5158 15.4756L79.5217 15.5419C79.7534 18.0214 81.2081 19.3121 83.2624 19.8521L83.4374 19.896C83.8196 19.9872 84.2214 20.0536 84.6388 20.098L84.8326 20.1169L85.0285 20.1328L85.2265 20.1456C85.326 20.1513 85.4262 20.1559 85.5271 20.1594L85.7299 20.1649L85.9344 20.1677C85.9686 20.168 86.0029 20.168 86.0373 20.168L86.2431 20.1667C86.2772 20.1662 86.3113 20.1656 86.3453 20.1649L86.5484 20.1594C86.6495 20.1559 86.7499 20.1513 86.8496 20.1456L87.0479 20.1328L87.2441 20.1169L87.4381 20.098C90.2037 19.8043 92.2781 18.5453 92.5639 15.5419L92.5677 15.512L92.5754 15.4333L92.5868 15.2764L92.5971 15.0865L92.6027 14.9492L92.6085 14.7387L92.6101 14.6019L92.6096 14.4733L92.6065 14.3574C92.6058 14.3394 92.6049 14.3222 92.604 14.3057V0.903723ZM49.1582 0.903723L46.7995 15.5183L44.4422 0.903723H36.8149L36.4104 19.6H41.0831L41.2097 2.2923L44.4247 19.6H49.1656L52.3836 2.2923L52.5106 19.6H57.1951L56.7769 0.903723H49.1582ZM20.9183 0.903723L17.455 19.6H22.5054L25.1152 2.2923L27.6624 19.6H32.6778L29.2289 0.903723H20.9183ZM109.129 15.9565L104.726 0.903723H97.7881V19.4051H102.378L102.111 3.87077L106.84 19.4051H113.494V0.903723H108.874L109.129 15.9565ZM66.6753 5.7695C66.5922 5.40027 66.6162 5.00799 66.6592 4.80297C66.6713 4.74856 66.6857 4.6937 66.7027 4.63893L66.7301 4.55689C66.9166 4.03858 67.353 3.55171 68.3536 3.55171C69.4334 3.55171 70.0665 4.22488 70.0665 5.2351V6.37832H74.6759V5.07521C74.6759 2.13447 72.7513 1.00324 70.6947 0.606756L70.5254 0.5758L70.3558 0.548021L70.186 0.523286L70.0162 0.501462L69.8468 0.482417L69.6778 0.466017C69.6216 0.460977 69.5655 0.456356 69.5096 0.452131L69.3423 0.440626L69.1763 0.431369L69.0116 0.424227L68.8485 0.419069L68.6873 0.41576L68.4494 0.413977L68.3445 0.414347L68.136 0.417322C68.1014 0.418069 68.0668 0.418941 68.0324 0.419941L67.8266 0.42747C67.7583 0.430493 67.6903 0.434033 67.6227 0.438097L67.4208 0.451871C64.6087 0.666975 62.4143 1.82204 61.9754 4.53073C61.8455 5.35561 61.8133 6.08783 62.02 7.02219C62.3454 8.55759 63.6245 9.65019 65.0927 10.5666L65.32 10.7062C65.3581 10.7293 65.3963 10.7522 65.4345 10.7751L65.6651 10.911L65.8972 11.0446L66.13 11.1762L66.4795 11.3703L67.3977 11.8734L67.6208 11.9972L67.84 12.1204L68.0548 12.2435L68.2646 12.3667C69.2653 12.9622 70.0671 13.5662 70.3556 14.2882C70.5152 14.7171 70.4803 15.2579 70.4031 15.6029L70.3899 15.6585C70.3708 15.7415 70.3468 15.8245 70.3167 15.906L70.2844 15.9871C70.0721 16.4832 69.6078 16.9062 68.5879 16.9062C67.4245 16.9062 66.7242 16.2373 66.7242 15.2293L66.7228 13.435H61.7615V14.8613C61.7615 18.2088 63.8854 19.663 66.5453 20.0947L66.7433 20.1249C66.8759 20.1437 67.0098 20.1601 67.1446 20.1742L67.3476 20.1936C67.5853 20.2142 67.8258 20.2278 68.0682 20.2349L68.2763 20.2395C68.311 20.24 68.3458 20.2404 68.3806 20.2406L68.4852 20.241C68.5547 20.241 68.624 20.2405 68.6931 20.2395L68.8994 20.235C68.9337 20.234 68.9678 20.2329 69.0019 20.2316L69.2057 20.2225C69.2733 20.2189 69.3406 20.2149 69.4076 20.2103L69.6075 20.1949C69.7401 20.1835 69.8714 20.17 70.0012 20.1544L70.1948 20.1292L70.386 20.1006C70.4494 20.0906 70.5124 20.0799 70.5749 20.0687L70.7612 20.0334C73.0129 19.5822 74.6883 18.3589 75.0247 16.0069C75.071 15.6561 75.0995 15.3321 75.1149 15.0359L75.1232 14.8426C75.1243 14.8111 75.1252 14.7799 75.126 14.7491L75.1291 14.5683V14.3959L75.1262 14.2319L75.1209 14.0765L75.1133 13.9297C75.1119 13.9059 75.1104 13.8826 75.1089 13.8595L75.0986 13.7257L75.087 13.6007L75.0742 13.4844L75.0537 13.3267L75.0324 13.1892L75.0047 13.0377L74.9918 12.9757C74.6672 11.3476 73.2418 10.1976 71.6583 9.25104L71.4311 9.11716L71.2024 8.98588L70.9727 8.857L70.6278 8.66782L70.1704 8.42236L69.3903 8.00744L69.0693 7.83377C69.0342 7.81457 68.9993 7.79541 68.9646 7.77627L68.7592 7.66172L68.5596 7.54762C67.5771 6.97796 66.8345 6.41863 66.6753 5.7695ZM5.87158 5.72364C5.78673 5.37029 5.8 4.99857 5.84353 4.78258L5.86155 4.70171L5.882 4.62169C6.03771 4.06027 6.46346 3.48161 7.56385 3.48161C8.65738 3.48161 9.30125 4.16126 9.30125 5.17964V6.33679H13.9646V5.02335C13.9646 2.21709 12.2189 1.03854 10.2681 0.577521L10.098 0.539219C9.95583 0.50877 9.81286 0.481951 9.66963 0.458415L9.49768 0.431725L9.3257 0.408054L9.15393 0.387268L8.98259 0.369235C8.92557 0.363668 8.86867 0.358538 8.8119 0.353822L8.6421 0.340895L8.4734 0.330322L8.30603 0.321969L8.14021 0.315704L7.97618 0.311394L7.73396 0.308105H7.65436C7.58444 0.308105 7.5148 0.308594 7.44544 0.309579L7.23822 0.314032C7.10067 0.318004 6.96431 0.323994 6.82927 0.332065L6.62772 0.34574C6.59429 0.348282 6.56095 0.350956 6.52771 0.353763L6.32928 0.372209C6.2635 0.378895 6.19809 0.386122 6.13306 0.393896L5.93912 0.41887C5.77849 0.441065 5.62034 0.466735 5.46491 0.496002L5.2797 0.532857L5.0972 0.573214L4.91747 0.61712C4.85804 0.632352 4.79909 0.648184 4.74063 0.664622L4.56675 0.715768C2.75694 1.2721 1.45268 2.43889 1.12345 4.46351C0.987565 5.3016 0.964278 6.03886 1.16066 6.98354C1.50639 8.61603 2.91646 9.75292 4.494 10.7082L4.72595 10.8467C4.76477 10.8696 4.80367 10.8924 4.84263 10.9151L5.07699 11.0501L5.4299 11.2489L5.8997 11.5081L6.59267 11.8879L6.92931 12.0753L7.25656 12.262L7.46848 12.3865C7.50334 12.4072 7.53797 12.428 7.57234 12.4488L7.77543 12.5737C8.64151 13.1162 9.31982 13.6749 9.58165 14.33C9.75314 14.756 9.71304 15.2966 9.632 15.6528L9.61814 15.7104C9.59813 15.7924 9.57356 15.8744 9.54317 15.9552L9.5108 16.0355C9.29295 16.5404 8.82541 16.9734 7.79216 16.9734C6.62421 16.9734 5.9256 16.293 5.9256 15.2711L5.91912 13.472H0.9021V14.9016C0.9021 18.9145 3.92769 20.2335 7.27843 20.3326L7.48825 20.3372L7.69877 20.3387L7.90694 20.3373C8.01062 20.3358 8.11369 20.3332 8.2161 20.3294L8.42002 20.3204C8.52152 20.3152 8.62233 20.3087 8.72239 20.3011L8.92149 20.2843L9.11852 20.2643C9.18384 20.2571 9.24879 20.2494 9.31337 20.2411L9.50596 20.2145C9.56977 20.2051 9.63319 20.1952 9.69619 20.1847L9.88399 20.1514C12.2157 19.7148 13.9535 18.4779 14.3034 16.0587C14.3516 15.7131 14.3817 15.3934 14.3985 15.1004L14.4078 14.909L14.4135 14.7256C14.4149 14.6658 14.4156 14.6074 14.4159 14.5503L14.4153 14.383L14.412 14.2239L14.4063 14.073L14.3986 13.9303L14.3892 13.796L14.3784 13.6701L14.3601 13.497L14.3405 13.3431L14.3139 13.168L14.2837 12.9983C13.9602 11.3895 12.5773 10.2449 11.0215 9.3035L10.7927 9.16715C10.7544 9.14466 10.716 9.12228 10.6776 9.10001L10.4462 8.96768L10.2139 8.83779L9.98131 8.71017L9.74903 8.58462L8.7241 8.04058L8.39635 7.86492L8.18351 7.74887L7.97591 7.63344L7.77417 7.51846C7.74108 7.49933 7.70825 7.4802 7.6757 7.46108L7.48392 7.34643C6.63711 6.83061 6.01529 6.31454 5.87158 5.72364Z" fill="#B2AECF"/>
</svg>
