<svg width="132" height="28" viewBox="0 0 132 28" fill="none" xmlns="http://www.w3.org/2000/svg">
<path d="M24.5715 15.2774L24.5888 15.2788L26.3965 15.4677C26.5234 15.4814 26.6399 15.5433 26.7223 15.6402L26.7357 15.6566L26.7185 15.6652C26.803 15.7718 26.8403 15.9083 26.8216 16.0431C26.4266 19.1829 24.9384 22.0834 22.6181 24.2354C20.2105 26.4683 17.0482 27.709 13.7645 27.709C12.1696 27.7116 10.5883 27.4179 9.10104 26.8432L9.02001 26.8116C8.89828 26.7666 8.80047 26.674 8.74869 26.5557L8.7409 26.5368C8.6902 26.419 8.68738 26.2864 8.73245 26.167L9.44597 24.4262C9.54265 24.1801 9.81665 24.0561 10.0641 24.1434L10.0806 24.1495C13.7276 25.5577 17.8583 24.7646 20.7246 22.1057C22.549 20.4294 23.7253 18.1647 24.0478 15.7081C24.082 15.4545 24.3021 15.2699 24.5543 15.2767L24.5715 15.2774ZM67.2637 7.88939C68.8051 7.88939 70.0105 8.35966 70.7803 9.26281L70.8061 9.29342V8.52914C70.8164 8.31581 70.9816 8.1434 71.1924 8.12258L71.2096 8.12122H73.2663C73.4779 8.13585 73.6462 8.30241 73.6645 8.51205L73.6657 8.52914V19.946C73.7322 21.5559 73.2373 23.1389 72.2659 24.4243C71.1581 25.7726 69.475 26.4552 67.2637 26.4552C64.1895 26.4552 61.7635 24.5102 61.3642 21.7321C61.3444 21.5316 61.4666 21.3451 61.6564 21.2822L61.6734 21.277L63.6828 20.8047C63.6933 20.8024 63.7038 20.8004 63.7144 20.7988C63.935 20.7665 64.1399 20.9191 64.1723 21.1397C64.3558 22.698 65.6952 23.8605 67.2637 23.8232C69.6399 23.8232 70.7578 22.6154 70.7799 20.0916L70.7803 20.0147V19.0143C69.8896 20.0133 68.6014 20.5653 67.2637 20.5214C63.846 20.5214 61.3686 17.8679 61.3686 14.2182C61.3373 12.5762 61.9154 10.9807 62.9915 9.73992C64.0845 8.53916 65.6402 7.86531 67.2637 7.88939ZM5.36657 21.775L5.39206 21.7749L5.41763 21.7751C6.23803 21.7845 6.89857 22.4478 6.90749 23.2652L6.90755 23.2908C6.90755 23.2993 6.90745 23.3078 6.90731 23.3163C6.89302 24.1533 6.20305 24.8203 5.36608 24.806C4.52912 24.7918 3.8622 24.1018 3.87634 23.2648C3.89033 22.4449 4.55271 21.7882 5.36657 21.775ZM102.865 7.73053L102.97 7.73131C106.644 7.78205 108.921 10.3395 108.921 14.4329C108.921 14.6495 108.909 14.8659 108.886 15.0813C108.868 15.2793 108.706 15.432 108.509 15.4414L108.492 15.4419H99.7581C99.8119 17.2762 101.328 18.7275 103.163 18.7008C104.586 18.7902 105.882 17.8858 106.289 16.5197C106.363 16.3236 106.575 16.2181 106.775 16.2743L106.791 16.2792L108.534 16.8932C108.631 16.9242 108.709 16.9925 108.754 17.0823L108.762 17.0993C108.81 17.1939 108.818 17.3038 108.784 17.4041C107.974 19.8015 105.692 21.3877 103.163 21.3114C101.505 21.3279 99.9091 20.6801 98.7323 19.5124C97.4472 18.1605 96.7616 16.3481 96.8301 14.4844C96.8301 10.2975 99.8392 7.78121 102.778 7.7313L102.865 7.73053ZM53.4467 7.73054H53.4509C57.1908 7.73054 59.5137 10.2981 59.5137 14.4329C59.5134 14.6495 59.5019 14.8659 59.4793 15.0813C59.462 15.2804 59.2989 15.4342 59.1008 15.4416L59.0843 15.4419H50.351C50.4048 17.2812 51.9289 18.7346 53.7687 18.7009C55.1919 18.7918 56.4888 17.8868 56.8945 16.5197C56.9672 16.322 57.1803 16.2158 57.3806 16.2741L57.3969 16.2792L59.1401 16.8932C59.242 16.9261 59.3249 17.0012 59.3676 17.0993C59.4084 17.1968 59.4084 17.3066 59.3676 17.4041C58.5586 19.7999 56.2792 21.3858 53.7515 21.3114C52.0905 21.3302 50.4912 20.6822 49.3118 19.5124C48.0288 18.1595 47.3434 16.3478 47.4098 14.4844C47.4098 10.2552 50.4798 7.73054 53.4467 7.73054ZM40.2222 7.7262C41.9009 7.7262 43.2578 8.13411 44.2625 8.93698C44.9419 9.47841 45.4454 10.209 45.7095 11.0366L45.7103 11.04C45.7448 11.1826 45.6609 11.3264 45.5218 11.3677L45.5077 11.3715L43.4252 12.0585C43.3328 12.0951 43.2299 12.0951 43.1376 12.0585C43.0587 12.0217 42.9994 11.9529 42.9744 11.8696L42.9633 11.8287C42.7736 11.1506 42.1535 10.062 40.2222 10.062C38.8482 10.062 38.0238 10.852 38.0238 11.6163L38.0241 11.6466C38.0345 12.1435 38.3047 12.7673 39.4897 13.0045L39.5266 13.0117L41.8194 13.4411C44.3528 13.9512 45.8131 15.3281 45.8421 17.2471L45.8425 17.3054L45.834 17.2711L45.8334 17.3293C45.7966 19.2529 43.936 21.277 40.5098 21.277C36.4952 21.277 34.9195 19.0057 34.6275 17.6661C34.6084 17.5259 34.6939 17.3936 34.8276 17.3524L34.8422 17.3483L36.989 16.6785C37.0274 16.6723 37.0666 16.6723 37.1049 16.6785C37.1595 16.6775 37.2135 16.6891 37.2627 16.7123L37.281 16.7215C37.3598 16.7592 37.418 16.83 37.4398 16.9146C37.7104 18.2028 38.874 18.9714 40.5485 18.9714C42.1071 18.9714 42.8155 18.1555 42.8155 17.417C42.8155 16.6866 42.1981 16.1452 41.1337 15.9216L41.0981 15.9142L38.6893 15.4462C36.4437 15.0212 35.044 13.6257 35.044 11.8095C35.044 9.59823 37.4184 7.7262 40.2222 7.7262ZM126.817 4.14959H128.694C128.915 4.16289 129.089 4.34245 129.097 4.56237L129.097 4.57894V8.10407H131.355C131.575 8.1195 131.746 8.29827 131.755 8.51654L131.755 8.53341V10.4055L131.755 10.4218C131.749 10.6316 131.582 10.8021 131.372 10.8128L131.355 10.8134H129.097V17.0778C129.097 18.1169 129.509 18.5463 130.569 18.5463C130.784 18.5426 130.999 18.5263 131.211 18.4975L131.291 18.4861C131.408 18.4663 131.527 18.4994 131.617 18.5763C131.698 18.6515 131.747 18.7549 131.754 18.8648L131.755 18.8855V20.6502C131.757 20.83 131.639 20.9893 131.467 21.0409C130.973 21.1793 130.462 21.2488 129.949 21.2476L129.879 21.247C127.638 21.247 126.24 19.8204 126.212 17.513L126.212 17.4428V10.8391H124.258C124.045 10.8266 123.874 10.6595 123.856 10.4484L123.855 10.4312V8.55057C123.854 8.3287 124.023 8.14406 124.242 8.12253L124.258 8.12122L124.783 8.12116L124.839 8.12016C125.452 8.10255 126.394 7.85406 126.413 6.48548L126.414 6.44236V4.57894C126.413 4.35707 126.582 4.17243 126.801 4.1509L126.817 4.14959ZM90.3488 7.72863L90.398 7.73054H90.3936C92.6041 7.73054 94.8356 9.27069 94.88 12.6344L94.8807 12.7369V20.6888C94.8707 20.9021 94.7049 21.0745 94.4943 21.0954L94.4771 21.0967H92.4202C92.2073 21.0841 92.0369 20.9171 92.0179 20.706L92.0167 20.6888V12.9946L92.0163 12.9353C92.0038 11.9549 91.6706 10.3797 89.6512 10.3797C88.1588 10.3797 87.0958 11.5412 87.0747 13.2308L87.0744 13.2822V20.6888C87.0644 20.9021 86.8993 21.0745 86.6881 21.0954L86.6708 21.0967H84.5889C84.3752 21.0841 84.2048 20.9171 84.1865 20.706L84.1854 20.6888V12.9946L84.185 12.9353C84.1725 11.9549 83.8392 10.3797 81.8192 10.3797C80.2677 10.3797 79.2171 11.5327 79.1963 13.2556L79.196 13.308V20.6888C79.1852 20.9021 79.0202 21.0745 78.8096 21.0954L78.7924 21.0967H76.7355C76.524 21.0821 76.3557 20.9155 76.3375 20.7059L76.3364 20.6888V8.50336C76.3464 8.29154 76.5093 8.11973 76.7185 8.09697L76.7355 8.09545H78.7151C78.928 8.108 79.0991 8.27513 79.1175 8.48616L79.1186 8.50336V9.2376C80.009 8.26137 81.2749 7.71287 82.5961 7.73054C84.1264 7.68569 85.5544 8.49475 86.3019 9.83006C87.1921 8.4699 88.7269 7.67417 90.3488 7.72863ZM121.145 9.24614C121.933 10.2842 122.339 11.5609 122.298 12.8622L122.295 12.9172V20.6888C122.285 20.9006 122.122 21.0725 121.913 21.0952L121.896 21.0967H119.814C119.601 21.0841 119.43 20.9171 119.411 20.706L119.41 20.6888V13.3338C119.41 11.4102 118.504 10.4312 116.787 10.4312C116.028 10.4067 115.303 10.7447 114.833 11.3415C114.379 11.9966 114.144 12.7784 114.162 13.5746L114.164 13.6214V20.6888C114.153 20.9021 113.988 21.0745 113.777 21.0954L113.76 21.0967H111.682C111.469 21.0841 111.298 20.9171 111.279 20.706L111.278 20.6888V8.49475C111.288 8.28142 111.454 8.10908 111.665 8.08819L111.682 8.08683H113.713C113.925 8.10146 114.093 8.26809 114.111 8.47766L114.112 8.49475V9.35351C114.983 8.29804 116.291 7.69998 117.659 7.73054C118.992 7.67354 120.278 8.23243 121.145 9.24614ZM1.47171 15.7983H16.2549C16.5265 15.8006 16.746 16.0182 16.7528 16.2877L16.753 16.305V18.1556C16.7552 18.4272 16.5414 18.6504 16.2721 18.6618L16.2548 18.6622H1.47171C1.2 18.6599 0.980607 18.4423 0.973633 18.1728V18.1555V16.3049V16.2877C0.980461 16.024 1.19063 15.8101 1.45407 15.7988L1.47171 15.7983ZM67.6201 10.457C65.5935 10.457 64.3054 11.8997 64.3054 14.2182C64.3054 16.5368 65.5763 17.9752 67.6201 17.9752C69.5694 17.9752 70.8833 16.4639 70.8833 14.2182C70.8833 11.9683 69.5694 10.457 67.6201 10.457ZM50.4423 12.9656L50.4368 13.0117H56.5467C56.398 11.3795 55.2476 10.3616 53.5248 10.3414L53.4724 10.3411C51.9544 10.3164 50.6616 11.4267 50.4485 12.9203L50.4423 12.9656ZM99.8668 12.9656L99.8613 13.0117H105.972C105.823 11.3795 104.672 10.3616 102.949 10.3414L102.897 10.3411C101.379 10.3164 100.086 11.4267 99.8729 12.9203L99.8668 12.9656ZM18.1054 1.6764C18.2334 1.72258 18.3372 1.81861 18.3931 1.94263C18.4444 2.06782 18.4444 2.20819 18.3931 2.33331L17.7491 4.05084C17.6598 4.3055 17.3813 4.4399 17.1265 4.35138C13.7524 3.17396 10.0085 3.84294 7.25101 6.11604C5.53252 7.55446 4.31231 9.49903 3.76454 11.6721C3.70784 11.8915 3.51025 12.045 3.28365 12.0456H3.172L1.403 11.6206C1.2711 11.5896 1.15784 11.5057 1.08957 11.3887H1.08095C1.00937 11.2717 0.98919 11.1304 1.0252 10.998C1.72769 8.2163 3.29955 5.7314 5.51205 3.9048C9.03017 1.00845 13.807 0.163163 18.1054 1.6764ZM11.5576 9.09591H26.3407C26.6056 9.09807 26.8222 9.30532 26.838 9.56777L26.8388 9.58534V11.4359C26.841 11.7077 26.6274 11.9308 26.3579 11.9422L26.3407 11.9426H11.5576C11.2876 11.938 11.0708 11.7213 11.0639 11.4535L11.0637 11.4359V9.6025C11.0614 9.33257 11.2725 9.11026 11.54 9.09651L11.5576 9.09591ZM21.8199 3.44966L21.8454 3.44946L21.871 3.44968C22.6914 3.45908 23.3519 4.12245 23.3608 4.93976L23.3609 4.96535C23.3609 4.97389 23.3608 4.98244 23.3607 4.99091C23.3465 5.82787 22.6564 6.49479 21.8194 6.48058C20.9825 6.46637 20.3156 5.77632 20.3298 4.93943C20.3437 4.11947 21.0061 3.46276 21.8199 3.44966Z" fill="#B2AECF"/>
</svg>
