<svg width="132" height="28" viewBox="0 0 132 28" fill="none" xmlns="http://www.w3.org/2000/svg">
<path d="M130.53 10.2083C131.555 11.0378 130.469 12.3499 129.564 11.6864C128.448 10.9775 125.915 10.6457 125.598 12.2142C125.191 14.6877 131.751 13.27 131.646 17.2818C131.54 21.1127 125.99 21.2032 123.909 19.4838C123.411 19.0766 123.426 18.413 123.698 18.0057C124.09 17.6137 124.527 17.4779 125.04 17.9001C126.277 18.7447 129.459 19.3782 129.685 17.2366C129.489 15.0044 123.215 16.3467 123.682 12.0634C124.029 9.13747 128.448 8.60955 130.53 10.2083ZM120.635 10.7965V16.2562C120.635 21.8969 111.541 21.8969 111.541 16.2562V10.7965C111.541 9.43917 113.517 9.37878 113.517 10.7965V16.2562C113.517 19.2274 118.66 19.4084 118.66 16.2562V10.7965C118.66 9.45414 120.635 9.34859 120.635 10.7965ZM58.3595 9.42408C60.9988 9.55971 63.7588 11.3847 63.7588 14.9592C63.7588 18.5336 60.9988 20.3888 58.3595 20.3888C55.5693 20.5094 52.6735 18.6543 52.6735 14.9592C52.6735 11.2489 55.5693 9.42408 58.3595 9.42408ZM71.6471 9.80102C75.478 9.80102 76.2622 14.929 73.0649 16.2109L75.0708 18.6543C75.855 19.8157 74.2865 20.9317 73.3816 19.7855L71.1042 16.5277H68.7363V19.2576C68.7363 20.5697 66.7304 20.615 66.7304 19.2877V10.7211C66.7304 10.1932 67.1376 9.80102 67.6353 9.80102H71.6471ZM40.3961 9.66539C40.8335 9.66539 41.0899 9.92179 41.3464 10.2083L44.6644 14.6877L48.1031 10.0423C48.6008 9.42408 49.8225 9.66539 49.8225 10.706V19.1973C49.8225 19.8608 49.4002 20.2379 48.9175 20.2379C48.3746 20.2379 47.9523 19.8608 47.9523 19.1973V13.6169L45.4487 16.7841C44.9057 17.4477 44.227 17.4477 43.7293 16.7841L41.4821 13.6169V19.1973C41.4821 19.8608 40.9391 20.2379 40.3961 20.2379C39.9135 20.2379 39.4912 19.8608 39.4912 19.1973V10.706C39.4912 9.9218 40.1548 9.66539 40.3961 9.66539ZM82.5821 9.66539C84.5428 9.66539 86.3073 10.9775 86.3073 13.4962C86.3073 15.8792 84.5428 17.2064 82.5821 17.2064H80.0633V19.1973C80.0633 19.8608 79.641 20.2379 79.098 20.2379C78.6004 20.2379 78.0725 19.8608 78.0725 19.1973V10.706C78.0725 10.2083 78.4646 9.66539 79.098 9.66539H82.5821ZM96.9859 9.80102C97.5138 9.80102 97.9211 10.1932 97.9211 10.7362V19.3028C97.9211 19.8306 97.5138 20.2379 96.9859 20.2379C96.443 20.2379 95.9604 19.8306 95.9604 19.3028V15.9998H91.0436V19.3028C91.0436 19.8306 90.6515 20.2379 90.1235 20.2379C89.4449 20.2379 89.0527 19.8306 89.0527 19.3028V10.7362C89.0527 10.1932 89.4449 9.80102 90.1235 9.80102C90.6515 9.80102 91.0436 10.1932 91.0436 10.7362V14.0241H95.9604V10.7362C95.9604 10.1932 96.443 9.80102 96.9859 9.80102ZM107.484 9.80101C108.871 9.80101 108.841 11.7617 107.484 11.7617H103.14V14.0241H106.941C108.283 14.0241 108.283 15.9998 106.941 15.9998H103.14V18.2621H107.74C109.112 18.2621 109.218 20.2379 107.74 20.2379H102.069C101.541 20.2379 101.134 19.8306 101.134 19.3028V10.7362C101.134 10.1932 101.541 9.80101 102.069 9.80101H107.484ZM58.1935 11.3847C56.5043 11.3847 54.6643 12.5763 54.6643 14.9592C54.6643 17.327 56.5043 18.5336 58.1935 18.5336C59.928 18.5336 61.7831 17.327 61.7831 14.9592C61.7831 12.5763 59.928 11.3847 58.1935 11.3847ZM82.5821 11.5657H80.0633V15.3212H82.5821C83.5925 15.3212 84.3919 14.4313 84.3919 13.4962C84.3919 12.4405 83.5925 11.5657 82.5821 11.5657ZM71.6472 11.626H68.7363V14.7932H71.6472C73.6078 14.7932 73.7285 11.626 71.6472 11.626Z" fill="#B2AECF"/>
<path d="M27.5273 17.7188C26.0569 23.6262 20.6769 27.8291 14.3405 27.8291C7.97547 27.8291 2.64184 23.3775 1.23169 17.4456C2.92732 17.4456 4.51249 17.4534 5.24841 17.4534C5.59556 17.4534 5.66298 17.4594 5.68307 17.458C6.2368 17.4307 6.93112 17.248 7.39304 16.1247L9.15323 11.5203L13.0624 20.9322C13.4138 21.6825 14.0005 21.6293 14.3506 21.6293H14.3836C15.0664 21.6293 15.3634 21.39 15.623 20.8951L20.0385 11.5908L21.5448 15.7841L21.6366 15.9871C21.9551 16.6857 22.1842 17.3758 22.9723 17.466C23.1348 17.4845 25.0215 17.4516 27.5649 17.4516C27.5649 17.4516 27.5649 17.4679 27.5273 17.7188Z" fill="#B2AECF"/>
<path d="M27.9589 14.2394C27.9589 14.3097 27.9589 14.4865 27.9575 14.4865H27.9546H23.8949L21.5264 7.87025C21.3156 7.3782 20.9985 6.64056 20.0747 6.64056C19.5095 6.64056 18.9988 7.10735 18.709 7.8777L14.4154 17.823L10.2825 7.93803C9.87797 7.06009 9.59824 6.64719 8.78915 6.64719C8.23972 6.64719 7.83662 6.84958 7.39765 7.88963L4.94458 14.5847L0.869045 14.5804C0.866174 14.4786 0.864746 14.3767 0.864746 14.2749C0.864746 6.83248 6.89843 0.817627 14.3408 0.817627C21.7832 0.817627 27.9589 6.79697 27.9589 14.2394Z" fill="#B2AECF"/>
</svg>
