<svg width="57" height="56" viewBox="0 0 57 56" fill="none" xmlns="http://www.w3.org/2000/svg">
<path d="M38.5681 4.66666H19.0148C10.5215 4.66666 5.45813 9.72999 5.45813 18.2233V37.7533C5.45813 46.27 10.5215 51.3333 19.0148 51.3333H38.5448C47.0381 51.3333 52.1015 46.27 52.1015 37.7767V18.2233C52.1248 9.72999 47.0615 4.66666 38.5681 4.66666ZM27.6948 31.57L19.0148 40.25H24.1248C25.0815 40.25 25.8748 41.0433 25.8748 42C25.8748 42.9567 25.0815 43.75 24.1248 43.75H14.7915C14.5581 43.75 14.3248 43.7033 14.1148 43.61C13.6948 43.4233 13.3448 43.0967 13.1581 42.6533C13.0881 42.4433 13.0415 42.2333 13.0415 42V32.6667C13.0415 31.71 13.8348 30.9167 14.7915 30.9167C15.7481 30.9167 16.5415 31.71 16.5415 32.6667V37.7767L25.2215 29.0967C25.8981 28.42 27.0181 28.42 27.6948 29.0967C28.3715 29.7733 28.3715 30.8933 27.6948 31.57ZM44.5415 23.3333C44.5415 24.29 43.7481 25.0833 42.7915 25.0833C41.8348 25.0833 41.0415 24.29 41.0415 23.3333V18.2233L32.3615 26.9033C32.0115 27.2533 31.5681 27.4167 31.1248 27.4167C30.6815 27.4167 30.2381 27.2533 29.8881 26.9033C29.2115 26.2267 29.2115 25.1067 29.8881 24.43L38.5681 15.75H33.4581C32.5015 15.75 31.7081 14.9567 31.7081 14C31.7081 13.0433 32.5015 12.25 33.4581 12.25H42.7915C43.0248 12.25 43.2348 12.2967 43.4681 12.39C43.8881 12.5767 44.2381 12.9033 44.4248 13.3467C44.4948 13.5567 44.5415 13.7667 44.5415 14V23.3333Z" fill="#F62C84"/>
<path d="M38.5681 4.66666H19.0148C10.5215 4.66666 5.45813 9.72999 5.45813 18.2233V37.7533C5.45813 46.27 10.5215 51.3333 19.0148 51.3333H38.5448C47.0381 51.3333 52.1015 46.27 52.1015 37.7767V18.2233C52.1248 9.72999 47.0615 4.66666 38.5681 4.66666ZM27.6948 31.57L19.0148 40.25H24.1248C25.0815 40.25 25.8748 41.0433 25.8748 42C25.8748 42.9567 25.0815 43.75 24.1248 43.75H14.7915C14.5581 43.75 14.3248 43.7033 14.1148 43.61C13.6948 43.4233 13.3448 43.0967 13.1581 42.6533C13.0881 42.4433 13.0415 42.2333 13.0415 42V32.6667C13.0415 31.71 13.8348 30.9167 14.7915 30.9167C15.7481 30.9167 16.5415 31.71 16.5415 32.6667V37.7767L25.2215 29.0967C25.8981 28.42 27.0181 28.42 27.6948 29.0967C28.3715 29.7733 28.3715 30.8933 27.6948 31.57ZM44.5415 23.3333C44.5415 24.29 43.7481 25.0833 42.7915 25.0833C41.8348 25.0833 41.0415 24.29 41.0415 23.3333V18.2233L32.3615 26.9033C32.0115 27.2533 31.5681 27.4167 31.1248 27.4167C30.6815 27.4167 30.2381 27.2533 29.8881 26.9033C29.2115 26.2267 29.2115 25.1067 29.8881 24.43L38.5681 15.75H33.4581C32.5015 15.75 31.7081 14.9567 31.7081 14C31.7081 13.0433 32.5015 12.25 33.4581 12.25H42.7915C43.0248 12.25 43.2348 12.2967 43.4681 12.39C43.8881 12.5767 44.2381 12.9033 44.4248 13.3467C44.4948 13.5567 44.5415 13.7667 44.5415 14V23.3333Z" fill="url(#paint0_linear_1_459)"/>
<defs>
<linearGradient id="paint0_linear_1_459" x1="5.45813" y1="28" x2="72.8958" y2="-21.1868" gradientUnits="userSpaceOnUse">
<stop stop-color="#FF358D"/>
<stop offset="1" stop-color="#C432FF"/>
</linearGradient>
</defs>
</svg>
