<svg width="249" height="13" viewBox="0 0 249 13" fill="none" xmlns="http://www.w3.org/2000/svg">
<path d="M2.64453 6.37682C6.06909 0.340457 10.3498 0.340457 15.4866 6.37682C20.0046 10.9586 24.2853 10.9586 28.3287 6.37682C31.7533 1.795 36.034 1.795 41.1708 6.37682C46.1242 10.6314 50.4049 10.6314 54.013 6.37682C57.4375 2.12228 61.7182 2.12228 66.8551 6.37682C72.8261 12.0132 77.1068 12.0132 79.6972 6.37682C83.1217 0.740457 87.4024 0.740457 92.5393 6.37682C97.2453 11.0677 101.526 11.0677 105.381 6.37682C108.806 1.68591 113.087 1.68591 118.223 6.37682C123.321 10.995 127.601 10.995 131.066 6.37682C134.49 1.75864 138.771 1.75864 143.908 6.37682C149.227 11.3223 153.507 11.3223 156.75 6.37682C160.174 1.43137 164.455 1.43137 169.592 6.37682C175.258 12.3405 179.538 12.3405 182.434 6.37682C185.859 0.413184 190.139 0.413184 195.276 6.37682C199.88 11.1041 204.161 11.1041 208.118 6.37682C211.543 1.64955 215.823 1.64955 220.96 6.37682C226.018 10.9586 230.299 10.9586 233.802 6.37682C237.227 1.795 241.508 1.795 246.645 6.37682" stroke="#8A3EFF" stroke-width="3.49843" stroke-linecap="round"/>
</svg>
