<svg width="165" height="164" viewBox="0 0 165 164" fill="none" xmlns="http://www.w3.org/2000/svg">
<path d="M164.437 8C164.437 3.58172 160.855 0 156.437 0H84.4366C80.0183 0 76.4366 3.58172 76.4366 8C76.4366 12.4183 80.0183 16 84.4366 16H148.437V80C148.437 84.4183 152.018 88 156.437 88C160.855 88 164.437 84.4183 164.437 80V8ZM76.4029 99.3473L162.093 13.6569L150.78 2.34315L65.0892 88.0336L76.4029 99.3473Z" fill="#8A3EFF"/>
<path d="M-4.57764e-05 155.5C-4.61626e-05 159.918 3.58167 163.5 7.99995 163.5L80 163.5C84.4182 163.5 88 159.918 88 155.5C88 151.082 84.4182 147.5 80 147.5L16 147.5L16 83.5C16 79.0817 12.4182 75.5 7.99996 75.5C3.58168 75.5 -3.90957e-05 79.0817 -3.94819e-05 83.5L-4.57764e-05 155.5ZM88.0336 64.1527L2.3431 149.843L13.6568 161.157L99.3473 75.4664L88.0336 64.1527Z" fill="#8A3EFF"/>
<rect x="31" y="30" width="103" height="104" rx="27" fill="white"/>
<rect x="31" y="30" width="103" height="104" rx="27" fill="url(#paint0_linear_1_1285)"/>
<defs>
<linearGradient id="paint0_linear_1_1285" x1="31" y1="82" x2="180.864" y2="-26.3085" gradientUnits="userSpaceOnUse">
<stop stop-color="#FF358D"/>
<stop offset="1" stop-color="#C432FF"/>
</linearGradient>
</defs>
</svg>
