<svg width="57" height="56" viewBox="0 0 57 56" fill="none" xmlns="http://www.w3.org/2000/svg">
<path d="M38.5681 4.66669H19.0148C10.5215 4.66669 5.45813 9.73002 5.45813 18.2234V37.7534C5.45813 46.27 10.5215 51.3334 19.0148 51.3334H38.5448C47.0381 51.3334 52.1015 46.27 52.1015 37.7767V18.2234C52.1248 9.73002 47.0615 4.66669 38.5681 4.66669ZM18.5948 42.35C18.5948 43.3067 17.8015 44.1 16.8448 44.1C15.8881 44.1 15.0948 43.3067 15.0948 42.35V37.52C15.0948 36.5634 15.8881 35.77 16.8448 35.77C17.8015 35.77 18.5948 36.5634 18.5948 37.52V42.35ZM30.5415 42.35C30.5415 43.3067 29.7481 44.1 28.7915 44.1C27.8348 44.1 27.0415 43.3067 27.0415 42.35V32.6667C27.0415 31.71 27.8348 30.9167 28.7915 30.9167C29.7481 30.9167 30.5415 31.71 30.5415 32.6667V42.35ZM42.4881 42.35C42.4881 43.3067 41.6948 44.1 40.7381 44.1C39.7815 44.1 38.9881 43.3067 38.9881 42.35V27.8367C38.9881 26.88 39.7815 26.0867 40.7381 26.0867C41.6948 26.0867 42.4881 26.88 42.4881 27.8367V42.35ZM42.4881 20.4634C42.4881 21.42 41.6948 22.2134 40.7381 22.2134C39.7815 22.2134 38.9881 21.42 38.9881 20.4634V18.2C33.0381 24.3134 25.5948 28.63 17.2648 30.7067C17.1248 30.7534 16.9848 30.7534 16.8448 30.7534C16.0515 30.7534 15.3515 30.2167 15.1415 29.4234C14.9081 28.49 15.4681 27.5334 16.4248 27.3C24.2881 25.34 31.2881 21.21 36.8415 15.3767H33.9248C32.9681 15.3767 32.1748 14.5834 32.1748 13.6267C32.1748 12.67 32.9681 11.8767 33.9248 11.8767H40.7615C40.8548 11.8767 40.9248 11.9234 41.0181 11.9234C41.1348 11.9467 41.2515 11.9467 41.3681 11.9934C41.4848 12.04 41.5781 12.11 41.6948 12.18C41.7648 12.2267 41.8348 12.25 41.9048 12.2967C41.9281 12.32 41.9281 12.3434 41.9515 12.3434C42.0448 12.4367 42.1148 12.53 42.1848 12.6234C42.2548 12.7167 42.3248 12.7867 42.3481 12.88C42.3948 12.9734 42.3948 13.0667 42.4181 13.1834C42.4415 13.3 42.4881 13.4167 42.4881 13.5567C42.4881 13.58 42.5115 13.6034 42.5115 13.6267V20.4634H42.4881Z" fill="#F62C84"/>
<path d="M38.5681 4.66669H19.0148C10.5215 4.66669 5.45813 9.73002 5.45813 18.2234V37.7534C5.45813 46.27 10.5215 51.3334 19.0148 51.3334H38.5448C47.0381 51.3334 52.1015 46.27 52.1015 37.7767V18.2234C52.1248 9.73002 47.0615 4.66669 38.5681 4.66669ZM18.5948 42.35C18.5948 43.3067 17.8015 44.1 16.8448 44.1C15.8881 44.1 15.0948 43.3067 15.0948 42.35V37.52C15.0948 36.5634 15.8881 35.77 16.8448 35.77C17.8015 35.77 18.5948 36.5634 18.5948 37.52V42.35ZM30.5415 42.35C30.5415 43.3067 29.7481 44.1 28.7915 44.1C27.8348 44.1 27.0415 43.3067 27.0415 42.35V32.6667C27.0415 31.71 27.8348 30.9167 28.7915 30.9167C29.7481 30.9167 30.5415 31.71 30.5415 32.6667V42.35ZM42.4881 42.35C42.4881 43.3067 41.6948 44.1 40.7381 44.1C39.7815 44.1 38.9881 43.3067 38.9881 42.35V27.8367C38.9881 26.88 39.7815 26.0867 40.7381 26.0867C41.6948 26.0867 42.4881 26.88 42.4881 27.8367V42.35ZM42.4881 20.4634C42.4881 21.42 41.6948 22.2134 40.7381 22.2134C39.7815 22.2134 38.9881 21.42 38.9881 20.4634V18.2C33.0381 24.3134 25.5948 28.63 17.2648 30.7067C17.1248 30.7534 16.9848 30.7534 16.8448 30.7534C16.0515 30.7534 15.3515 30.2167 15.1415 29.4234C14.9081 28.49 15.4681 27.5334 16.4248 27.3C24.2881 25.34 31.2881 21.21 36.8415 15.3767H33.9248C32.9681 15.3767 32.1748 14.5834 32.1748 13.6267C32.1748 12.67 32.9681 11.8767 33.9248 11.8767H40.7615C40.8548 11.8767 40.9248 11.9234 41.0181 11.9234C41.1348 11.9467 41.2515 11.9467 41.3681 11.9934C41.4848 12.04 41.5781 12.11 41.6948 12.18C41.7648 12.2267 41.8348 12.25 41.9048 12.2967C41.9281 12.32 41.9281 12.3434 41.9515 12.3434C42.0448 12.4367 42.1148 12.53 42.1848 12.6234C42.2548 12.7167 42.3248 12.7867 42.3481 12.88C42.3948 12.9734 42.3948 13.0667 42.4181 13.1834C42.4415 13.3 42.4881 13.4167 42.4881 13.5567C42.4881 13.58 42.5115 13.6034 42.5115 13.6267V20.4634H42.4881Z" fill="url(#paint0_linear_1_491)"/>
<defs>
<linearGradient id="paint0_linear_1_491" x1="5.45813" y1="28" x2="73.2565" y2="-15.3547" gradientUnits="userSpaceOnUse">
<stop stop-color="#FF358D"/>
<stop offset="1" stop-color="#C432FF"/>
</linearGradient>
</defs>
</svg>
